<?xml version="1.0" encoding="iso-8859-1"?>
<!-- Generator: Adobe Illustrator 19.0.0, SVG Export Plug-In . SVG Version: 6.00 Build 0)  -->
<svg version="1.1" id="Capa_1" xmlns="http://www.w3.org/2000/svg" xmlns:xlink="http://www.w3.org/1999/xlink" x="0px" y="0px"
	 viewBox="0 0 470.747 470.747" style="enable-background:new 0 0 470.747 470.747;" xml:space="preserve">
<g>
	<g>
		<path d="M218.747,191.374c-15.464,0-28,12.536-28,28c0,15.464,12.536,28,28,28s28-12.536,28-28
			C246.747,203.91,234.211,191.374,218.747,191.374z M218.747,231.374c-6.627,0-12-5.373-12-12c0-6.627,5.373-12,12-12
			c6.627,0,12,5.373,12,12C230.747,226.001,225.374,231.374,218.747,231.374z"/>
	</g>
</g>
<g>
	<g>
		<path d="M326.747,79.374c4.418,0,8-3.582,8-8v-40h136v-16h-464v16h112v40c0,4.418,3.582,8,8,8h15.816
			c-1.793,31.828-21.417,59.91-50.688,72.536l-46.496,17.864c-36.472,14.024-54.67,54.959-40.646,91.431
			c7.977,20.747,25.241,36.539,46.614,42.641l22.232,6.352l-18.504,62.92c-1.247,4.239,1.178,8.686,5.417,9.933
			c0.061,0.018,0.122,0.035,0.183,0.051l240,64c4.192,1.118,8.511-1.31,9.736-5.472l4.848-16.496l97.128,29.888
			c0.765,0.233,1.56,0.351,2.36,0.352c3.534,0,6.65-2.319,7.664-5.704l24-80c1.262-4.211-1.11-8.652-5.312-9.944l-97.744-30.072
			l7.064-24c1.247-4.239-1.178-8.686-5.417-9.933c-0.061-0.018-0.122-0.035-0.183-0.051l-87.296-23.28l13.6-40.8
			c6.966-20.845,0.47-43.829-16.376-57.944V79.374H326.747z M55.739,288.47c-29.078-8.299-45.922-38.599-37.623-67.676
			c4.723-16.548,16.951-29.913,33.015-36.084l46.768-17.992c35.276-15.099,58.834-49.016,60.664-87.344h32.184v90.664
			c-9.972,6.585-17.441,16.331-21.208,27.672l-15.672,47.016l-49.056-13.08c-4.192-1.118-8.511,1.31-9.736,5.472L78.091,294.87
			L55.739,288.47z M428.803,372.685l-19.4,64.672l-88.712-27.296l19.4-64.672L428.803,372.685z M332.755,308.973l-35.488,120.664
			L72.739,369.773l35.488-120.648l48.8,13.016l88.12,23.496L332.755,308.973z M256.54,224.524c-0.182,0.667-0.383,1.33-0.601,1.986
			v0l-13.912,41.728l-41.528-11.08l-31.144-8.304l15.352-46.08c6.306-18.903,26.279-29.588,45.504-24.344
			C250.21,183.887,261.998,204.524,256.54,224.524z M206.747,162.926V79.374h32v85.032c-1.424-0.512-2.856-1.008-4.336-1.416
			C225.357,160.529,215.813,160.507,206.747,162.926z M134.747,63.374v-32h184v32H134.747z"/>
	</g>
</g>
<g>
</g>
<g>
</g>
<g>
</g>
<g>
</g>
<g>
</g>
<g>
</g>
<g>
</g>
<g>
</g>
<g>
</g>
<g>
</g>
<g>
</g>
<g>
</g>
<g>
</g>
<g>
</g>
<g>
</g>
</svg>
