<?xml version="1.0" encoding="iso-8859-1"?>
<!-- Generator: Adobe Illustrator 19.0.0, SVG Export Plug-In . SVG Version: 6.00 Build 0)  -->
<svg version="1.1" id="Capa_1" xmlns="http://www.w3.org/2000/svg" xmlns:xlink="http://www.w3.org/1999/xlink" x="0px" y="0px"
	 viewBox="0 0 488 488" style="enable-background:new 0 0 488 488;" xml:space="preserve">
<g>
	<g>
		<path d="M487.72,253.903c-0.176-0.682-0.445-1.336-0.8-1.944l-37.32-63.968l-18.688-32c-1.426-2.47-4.06-3.994-6.912-4h-96v-40
			c0-4.418-3.582-8-8-8H48c-4.418,0-8,3.582-8,8v136h-8c-4.418,0-8,3.582-8,8v48H8c-4.418,0-8,3.582-8,8v32c0,4.418,3.582,8,8,8
			h82.8c8.79,24.963,36.152,38.075,61.115,29.285c13.694-4.822,24.463-15.591,29.285-29.285H312c0,4.418,3.582,8,8,8h38.496
			c13.193,22.922,42.471,30.809,65.393,17.615c7.323-4.215,13.4-10.292,17.615-17.615H480c4.418,0,8-3.582,8-8v-96
			C488,255.286,487.906,254.583,487.72,253.903z M32,335.991H16v-16h16V335.991z M240,119.991h16v24h-16V119.991z M104,119.991h16
			v24h-16V119.991z M56,119.991h32v32c0,4.418,3.582,8,8,8h32c4.418,0,8-3.582,8-8v-32h40v128H56V119.991z M88,335.991H48v-16h42.8
			C88.961,325.126,88.014,330.537,88,335.991z M136,367.991c-17.673,0-32-14.327-32-32c0-17.673,14.327-32,32-32s32,14.327,32,32
			C168,353.664,153.673,367.991,136,367.991z M312,335.991H184c-0.014-5.454-0.961-10.865-2.8-16H312V335.991z M312,303.991H171.68
			c-17.554-19.706-47.759-21.45-67.464-3.896c-1.372,1.223-2.673,2.523-3.896,3.896H40v-40h272V303.991z M312,159.991v88H192v-128
			h32v32c0,4.418,3.582,8,8,8h32c4.418,0,8-3.582,8-8v-32h40V159.991z M438.088,199.991l1.304,2.24l26.68,45.76H368v-48l55.832-0.04
			L438.088,199.991z M352.72,343.991H328v-24h26.8C352.002,327.668,351.285,335.947,352.72,343.991z M400,367.991
			c-17.673,0-32-14.327-32-32c0-17.673,14.327-32,32-32c17.673,0,32,14.327,32,32C432,353.664,417.673,367.991,400,367.991z
			 M472,343.991h-24.72c1.435-8.043,0.718-16.323-2.08-24H472V343.991z M472,303.991h-36.32
			c-17.554-19.706-47.759-21.45-67.464-3.896c-1.372,1.222-2.673,2.523-3.896,3.896H328v-136h91.408l9.32,16h-4.872H360
			c-4.418,0-8,3.582-8,8v64c0,4.418,3.582,8,8,8h112V303.991z"/>
	</g>
</g>
<g>
</g>
<g>
</g>
<g>
</g>
<g>
</g>
<g>
</g>
<g>
</g>
<g>
</g>
<g>
</g>
<g>
</g>
<g>
</g>
<g>
</g>
<g>
</g>
<g>
</g>
<g>
</g>
<g>
</g>
</svg>
