<?xml version="1.0" encoding="iso-8859-1"?>
<!-- Generator: Adobe Illustrator 19.0.0, SVG Export Plug-In . SVG Version: 6.00 Build 0)  -->
<svg version="1.1" id="Capa_1" xmlns="http://www.w3.org/2000/svg" xmlns:xlink="http://www.w3.org/1999/xlink" x="0px" y="0px"
	 viewBox="0 0 479.999 479.999" style="enable-background:new 0 0 479.999 479.999;" xml:space="preserve">
<g>
	<g>
		<path d="M195.576,360.82l-80-40c-2.251-1.125-4.901-1.125-7.152,0l-80,40c-2.712,1.355-4.425,4.128-4.424,7.16v104
			c0,4.418,3.582,8,8,8h160c4.418,0,8-3.582,8-8v-104C200.001,364.948,198.288,362.176,195.576,360.82z M128,463.98H96v-40h32
			V463.98z M184,463.98h-40v-48c0-4.418-3.582-8-8-8H88c-4.418,0-8,3.582-8,8v48H40v-91.056l72-36l72,36V463.98z"/>
	</g>
</g>
<g>
	<g>
		<path d="M219.352,296.716l-104-48c-2.127-0.981-4.577-0.981-6.704,0l-104,48C1.815,298.024,0,300.86,0,303.98v40
			c0,4.418,3.582,8,8,8c1.157,0,2.301-0.251,3.352-0.736L112,304.78l100.648,46.448c4.012,1.851,8.765,0.1,10.616-3.912
			c0.483-1.046,0.734-2.184,0.736-3.336v-40C224,300.86,222.185,298.024,219.352,296.716z M208,331.484l-92.648-42.768
			c-2.127-0.981-4.577-0.981-6.704,0L16,331.484v-22.4l96-44.304l96,44.32V331.484z"/>
	</g>
</g>
<g>
	<g>
		<path d="M475.456,224.78L298.8,140.276l16.672-33.344l9.12,4.288c3.998,1.881,8.764,0.164,10.644-3.834
			c0.026-0.055,0.051-0.11,0.076-0.166l14.568-32.896c1.766-3.978,0.028-8.638-3.912-10.488L211.4,0.78
			c-3.931-1.848-8.618-0.222-10.56,3.664l-16,32c-1.975,3.952-0.372,8.757,3.58,10.732c0.057,0.029,0.115,0.056,0.172,0.083l8.584,4
			l-56.68,106.32l-8.752-4.632c-3.904-2.069-8.746-0.581-10.815,3.323c-0.03,0.057-0.06,0.115-0.089,0.173l-16,32
			c-1.943,3.888-0.426,8.616,3.416,10.648l136,72c3.904,2.069,8.746,0.581,10.815-3.323c0.03-0.057,0.06-0.115,0.089-0.173l16-32
			c1.943-3.888,0.426-8.616-3.416-10.648l-8.904-4.712l13.6-27.152l180.104,86.096c1.078,0.52,2.259,0.793,3.456,0.8
			c0.994,0.002,1.979-0.182,2.904-0.544c2.066-0.804,3.706-2.429,4.528-4.488l16-40C480.985,231.041,479.247,226.598,475.456,224.78
			z M211.664,18.532l120.424,56.472L324,93.252l-6.864-3.2c-0.527-0.523-1.128-0.965-1.784-1.312l-52-24l-60.528-28.512
			L211.664,18.532z M244.504,253.084l-121.856-64.52l8.848-17.688l60.464,32l52.248,28.136c0.739,0.392,1.536,0.662,2.36,0.8
			l6.784,3.592L244.504,253.084z M244.688,212.708L199.64,188.86l-44.8-24.144L211.504,58.38l44.624,20.592l44.864,21.112
			L244.688,212.708z M451.744,261.076l-172.176-82.344l12.072-24.144l170.152,81.392L451.744,261.076z"/>
	</g>
</g>
<g>
</g>
<g>
</g>
<g>
</g>
<g>
</g>
<g>
</g>
<g>
</g>
<g>
</g>
<g>
</g>
<g>
</g>
<g>
</g>
<g>
</g>
<g>
</g>
<g>
</g>
<g>
</g>
<g>
</g>
</svg>
