<?xml version="1.0" encoding="iso-8859-1"?>
<!-- Generator: Adobe Illustrator 19.0.0, SVG Export Plug-In . SVG Version: 6.00 Build 0)  -->
<svg version="1.1" id="Capa_1" xmlns="http://www.w3.org/2000/svg" xmlns:xlink="http://www.w3.org/1999/xlink" x="0px" y="0px"
	 viewBox="0 0 480 480" style="enable-background:new 0 0 480 480;" xml:space="preserve">
<g>
	<g>
		<path d="M352,0H128c-22.08,0.026-39.974,17.92-40,40v400c0.026,22.08,17.92,39.974,40,40h224c22.08-0.026,39.974-17.92,40-40V40
			C391.974,17.92,374.08,0.026,352,0z M376,440c0,13.255-10.745,24-24,24H128c-13.255,0-24-10.745-24-24v-40h272V440z M376,384H104
			V72h272V384z M376,56H104V40c0-13.255,10.745-24,24-24h224c13.255,0,24,10.745,24,24V56z"/>
	</g>
</g>
<g>
	<g>
		<path d="M240,183.296l-64,27.432V304h128v-93.272L240,183.296z M248,288h-16v-24h16V288z M288,288h-24v-40h-48v40h-24v-66.728
			l48-20.568l48,20.568V288z"/>
	</g>
</g>
<g>
	<g>
		<polygon points="240,151.208 148.688,192.72 155.312,207.28 240,168.792 324.688,207.28 331.312,192.72 		"/>
	</g>
</g>
<g>
	<g>
		<rect x="120" y="88" width="48" height="16"/>
	</g>
</g>
<g>
	<g>
		<rect x="120" y="120" width="88" height="16"/>
	</g>
</g>
<g>
	<g>
		<rect x="288" y="320" width="72" height="16"/>
	</g>
</g>
<g>
	<g>
		<rect x="288" y="352" width="56" height="16"/>
	</g>
</g>
<g>
	<g>
		<path d="M216,408v48h48v-48H216z M248,440h-16v-16h16V440z"/>
	</g>
</g>
<g>
	<g>
		<rect x="208" y="24" width="64" height="16"/>
	</g>
</g>
<g>
</g>
<g>
</g>
<g>
</g>
<g>
</g>
<g>
</g>
<g>
</g>
<g>
</g>
<g>
</g>
<g>
</g>
<g>
</g>
<g>
</g>
<g>
</g>
<g>
</g>
<g>
</g>
<g>
</g>
</svg>
