<?xml version="1.0" encoding="iso-8859-1"?>
<!-- Generator: Adobe Illustrator 19.0.0, SVG Export Plug-In . SVG Version: 6.00 Build 0)  -->
<svg version="1.1" id="Capa_1" xmlns="http://www.w3.org/2000/svg" xmlns:xlink="http://www.w3.org/1999/xlink" x="0px" y="0px"
	 viewBox="0 0 478.811 478.811" style="enable-background:new 0 0 478.811 478.811;" xml:space="preserve">
<g>
	<g>
		<path d="M397.238,96.019l-152-94.808c-2.59-1.615-5.874-1.615-8.464,0l-68.8,42.936V17.475c0-4.418-3.582-8-8-8
			c-0.013,0-0.027,0-0.04,0h-40.528c-4.418,0-8,3.582-8,8v61.936L84.773,96.019c-3.751,2.335-4.899,7.268-2.565,11.019
			c1.461,2.348,4.031,3.774,6.797,3.773h22.4v160c0,4.418,3.582,8,8,8h248c4.418,0,8-3.582,8-8v-160h17.6
			c4.418,0.003,8.002-3.577,8.005-7.995C401.012,100.05,399.585,97.48,397.238,96.019z M271.406,262.811h-64v-80h64V262.811z
			 M359.406,102.811v160h-72v-88c0-4.418-3.582-8-8-8h-80c-4.418,0-8,3.582-8,8v88h-64v-160c0-4.418-3.582-8-8-8h-2.456l6.688-4.168
			c2.345-1.461,3.769-4.029,3.768-6.792v-58.4h24.528v33.112c0,4.418,3.582,8,8,8c1.499,0,2.969-0.421,4.24-1.216l76.832-47.92
			l124.448,77.6C361.889,95.924,359.394,99.135,359.406,102.811z"/>
	</g>
</g>
<g>
	<g>
		<path d="M431.406,302.811h-128c-4.418,0-8,3.582-8,8v32h-120c-4.418,0-8,3.582-8,8v32h-120c-4.418,0-8,3.582-8,8v80
			c0,4.418,3.582,8,8,8h384c4.418,0,8-3.582,8-8v-160C439.406,306.393,435.824,302.811,431.406,302.811z M167.406,462.811h-16v-8
			h-16v8h-16v-8h-16v8h-16v-8h-16v8h-16v-24h112V462.811z M167.406,422.811h-16v-8h-16v8h-16v-8h-16v8h-16v-8h-16v8h-16v-24h112
			V422.811z M295.406,462.811h-16v-8h-16v8h-16v-8h-16v8h-16v-8h-16v8h-16v-24h112V462.811z M295.406,422.811h-16v-8h-16v8h-16v-8
			h-16v8h-16v-8h-16v8h-16v-24h112V422.811z M295.406,382.811h-16v-8h-16v8h-16v-8h-16v8h-16v-8h-16v8h-16v-24h112V382.811z
			 M423.406,462.811h-16v-8h-16v8h-16v-8h-16v8h-16v-8h-16v8h-16v-24h112V462.811z M423.406,422.811h-16v-8h-16v8h-16v-8h-16v8h-16
			v-8h-16v8h-16v-24h112V422.811z M423.406,382.811h-16v-8h-16v8h-16v-8h-16v8h-16v-8h-16v8h-16v-24h112V382.811z M423.406,342.811
			h-16v-8h-16v8h-16v-8h-16v8h-16v-8h-16v8h-16v-24h112V342.811z"/>
	</g>
</g>
<g>
</g>
<g>
</g>
<g>
</g>
<g>
</g>
<g>
</g>
<g>
</g>
<g>
</g>
<g>
</g>
<g>
</g>
<g>
</g>
<g>
</g>
<g>
</g>
<g>
</g>
<g>
</g>
<g>
</g>
</svg>
