<?xml version="1.0" encoding="iso-8859-1"?>
<!-- Generator: Adobe Illustrator 19.0.0, SVG Export Plug-In . SVG Version: 6.00 Build 0)  -->
<svg version="1.1" id="Capa_1" xmlns="http://www.w3.org/2000/svg" xmlns:xlink="http://www.w3.org/1999/xlink" x="0px" y="0px"
	 viewBox="0 0 480.001 480.001" style="enable-background:new 0 0 480.001 480.001;" xml:space="preserve">
<g>
	<g>
		<path d="M323.587,129.312l-80-40c-2.251-1.125-4.901-1.125-7.152,0l-80,40c-2.712,1.355-4.425,4.128-4.424,7.16v104
			c0,4.418,3.582,8,8,8h160c4.418,0,8-3.582,8-8v-104C328.012,133.44,326.299,130.668,323.587,129.312z M256.011,232.472h-32v-40h32
			V232.472z M312.011,232.472h-40v-48c0-4.418-3.582-8-8-8h-48c-4.418,0-8,3.582-8,8v48h-40v-91.056l72-36l72,36V232.472z"/>
	</g>
</g>
<g>
	<g>
		<path d="M217.307,358.224l-7.88-18.376c-11.712-27.521-30.518-51.442-54.496-69.32l-10.56-7.848
			c-8.633-6.492-20.766-5.458-28.176,2.4c-6.784,7.161-8.177,17.879-3.448,26.536l11.264,20.416l-49.704-30.96l-33.6-90.72
			c-3.802-10.781-15.593-16.473-26.4-12.744c-10.534,3.809-16.43,15.018-13.6,25.856l23.616,92
			c3.214,12.497,9.329,24.06,17.848,33.752l68.04,77.072c2.693,3.08,4.169,7.037,4.152,11.128v31.056c0,4.418,3.582,8,8,8h93.648
			c4.418,0,8-3.582,8-8v-57.448C224.036,379.748,221.755,368.586,217.307,358.224z M208.011,440.472h-77.648v-23.056
			c0.019-7.995-2.883-15.722-8.16-21.728l-68.04-77.064c-6.857-7.809-11.77-17.129-14.336-27.2L16.203,199.48
			c-0.796-2.767,0.636-5.688,3.312-6.752c2.584-0.806,5.334,0.623,6.16,3.2l34.552,93.28c0.62,1.66,1.774,3.067,3.28,4l78.04,48.616
			c3.737,2.358,8.677,1.24,11.035-2.497c1.559-2.471,1.647-5.596,0.229-8.151l-26.024-47.28c-1.39-2.506-1.002-5.623,0.96-7.712
			c1.847-2.027,4.937-2.308,7.12-0.648l10.56,7.84c21.702,16.192,38.721,37.851,49.32,62.768l7.88,18.4
			c3.576,8.369,5.408,17.379,5.384,26.48V440.472z"/>
	</g>
</g>
<g>
	<g>
		<path d="M465.723,177.608c-10.807-3.729-22.597,1.963-26.4,12.744l-33.6,90.72l-49.712,30.96l11.24-20.416
			c4.73-8.653,3.34-19.368-3.44-26.528c-7.416-7.861-19.554-8.894-28.192-2.4l-10.552,7.832
			c-23.977,17.883-42.781,41.806-54.496,69.328l-7.88,18.4c-4.448,10.362-6.729,21.524-6.704,32.8v57.424c0,4.418,3.582,8,8,8
			h93.672c4.418,0,8-3.582,8-8v-31.056c-0.019-4.093,1.46-8.051,4.16-11.128l68-77.072c8.532-9.7,14.65-21.278,17.856-33.792
			l23.616-91.96C482.124,192.635,476.244,181.43,465.723,177.608z M463.819,199.48l-23.624,92
			c-2.567,10.072-7.482,19.393-14.344,27.2l-68,77.064c-5.286,6.001-8.191,13.731-8.168,21.728v23h-77.672v-49.448
			c-0.015-9.097,1.826-18.102,5.408-26.464l7.88-18.4c10.601-24.917,27.619-46.579,49.32-62.776l10.552-7.824
			c2.188-1.662,5.283-1.381,7.136,0.648c1.958,2.088,2.343,5.202,0.952,7.704l-26.048,47.264c-2.131,3.87-0.722,8.735,3.148,10.867
			c2.538,1.398,5.633,1.314,8.092-0.219l78.04-48.616c1.506-0.933,2.66-2.34,3.28-4l34.552-93.28c0.833-2.567,3.572-3.991,6.152-3.2
			C463.163,193.78,464.611,196.704,463.819,199.48z"/>
	</g>
</g>
<g>
	<g>
		<path d="M240.011,23.528l-139.68,69.84l24.936,37.416l114.744-57.368l114.744,57.368l24.936-37.416L240.011,23.528z
			 M349.267,110.16L240.011,55.528L130.755,110.16l-7.064-10.584l116.32-58.16l116.32,58.16L349.267,110.16z"/>
	</g>
</g>
<g>
</g>
<g>
</g>
<g>
</g>
<g>
</g>
<g>
</g>
<g>
</g>
<g>
</g>
<g>
</g>
<g>
</g>
<g>
</g>
<g>
</g>
<g>
</g>
<g>
</g>
<g>
</g>
<g>
</g>
</svg>
