<?xml version="1.0" encoding="iso-8859-1"?>
<!-- Generator: Adobe Illustrator 19.0.0, SVG Export Plug-In . SVG Version: 6.00 Build 0)  -->
<svg version="1.1" id="Capa_1" xmlns="http://www.w3.org/2000/svg" xmlns:xlink="http://www.w3.org/1999/xlink" x="0px" y="0px"
	 viewBox="0 0 480.001 480.001" style="enable-background:new 0 0 480.001 480.001;" xml:space="preserve">
<g>
	<g>
		<path d="M433.953,96.24l-1.952-0.488c-61.059-15.195-118.443-42.504-168.744-80.304L244.801,1.6c-2.844-2.133-6.756-2.133-9.6,0
			l-18.456,13.848C166.444,53.249,109.06,80.558,48.001,95.752l-1.96,0.488c-3.553,0.898-6.042,4.095-6.04,7.76v90.152
			C39.9,290.472,88.05,380.44,168.249,433.784l67.312,44.872c2.688,1.794,6.192,1.794,8.88,0l67.312-44.872
			c80.199-53.344,128.349-143.312,128.248-239.632V104C440.001,100.333,437.509,97.135,433.953,96.24z M424.001,194.152
			c0.096,90.968-45.378,175.938-121.12,226.32l-62.88,41.928l-62.88-41.912c-75.747-50.385-121.221-135.362-121.12-226.336v-83.928
			c61.607-15.896,119.486-43.753,170.344-81.984L240.001,18l13.656,10.24c50.859,38.23,108.738,66.086,170.344,81.984V194.152z"/>
	</g>
</g>
<g>
	<g>
		<path d="M402.281,120.792c-56.755-16.899-110.07-43.71-157.48-79.192c-2.844-2.133-6.756-2.133-9.6,0
			c-47.409,35.491-100.728,62.305-157.488,79.2c-3.392,1.008-5.718,4.125-5.72,7.664v65.696
			c-0.098,85.631,42.707,165.618,114.008,213.04l49.6,33.032c2.688,1.794,6.192,1.794,8.88,0l49.6-33.032
			c71.27-47.444,114.041-127.431,113.92-213.048v-65.696C407.999,124.917,405.672,121.8,402.281,120.792z M392.001,194.152
			c0.085,80.265-40.04,155.237-106.872,199.688l-45.128,30.08l-45.128-30.08C128.04,349.389,87.916,274.417,88.001,194.152V134.4
			c54.543-16.913,105.905-42.748,152-76.456c46.098,33.703,97.46,59.537,152,76.456V194.152z"/>
	</g>
</g>
<g>
	<g>
		<path d="M323.577,208.84l-80-40c-2.251-1.125-4.901-1.125-7.152,0l-80,40c-2.712,1.355-4.425,4.128-4.424,7.16v104
			c0,4.418,3.582,8,8,8h160c4.418,0,8-3.582,8-8V216C328.002,212.968,326.289,210.195,323.577,208.84z M256.001,312h-32v-40h32V312z
			 M312.001,312h-40v-48c0-4.418-3.582-8-8-8h-48c-4.418,0-8,3.582-8,8v48h-40v-91.056l72-36l72,36V312z"/>
	</g>
</g>
<g>
	<g>
		<path d="M347.353,144.736l-104-48c-2.127-0.981-4.577-0.981-6.704,0l-104,48c-2.833,1.308-4.648,4.143-4.648,7.264v40
			c0,4.418,3.582,8,8,8c1.157,0,2.301-0.251,3.352-0.736L240.001,152.8l100.648,46.448c1.049,0.493,2.193,0.75,3.352,0.752
			c4.418,0,8-3.582,8-8v-40C352.001,148.879,350.186,146.044,347.353,144.736z M336.001,179.52l-92.648-42.784
			c-2.127-0.981-4.577-0.981-6.704,0l-92.648,42.768v-22.4l96-44.304l96,44.32V179.52z"/>
	</g>
</g>
<g>
</g>
<g>
</g>
<g>
</g>
<g>
</g>
<g>
</g>
<g>
</g>
<g>
</g>
<g>
</g>
<g>
</g>
<g>
</g>
<g>
</g>
<g>
</g>
<g>
</g>
<g>
</g>
<g>
</g>
</svg>
