<?xml version="1.0" encoding="iso-8859-1"?>
<!-- Generator: Adobe Illustrator 19.0.0, SVG Export Plug-In . SVG Version: 6.00 Build 0)  -->
<svg version="1.1" id="Capa_1" xmlns="http://www.w3.org/2000/svg" xmlns:xlink="http://www.w3.org/1999/xlink" x="0px" y="0px"
	 viewBox="0 0 486.936 486.936" style="enable-background:new 0 0 486.936 486.936;" xml:space="preserve">
<g>
	<g>
		<path d="M473.064,146.78c-7.816,13.683-16.839,26.641-26.96,38.72c-20.73,24.551-43.566,47.242-68.248,67.816l-63.92-63.92
			c23.041-25.803,48.466-49.374,75.936-70.4l10.208-7.808l-4.864-6.352l4.944,6.296l12.28-9.664l72-48l-8.88-13.312l-72.496,48.328
			L390.28,98.508l-10.12,7.744c-51.75,39.532-96.283,87.707-131.632,142.4l-9.52,14.72c-0.929,1.453-1.356,3.17-1.216,4.888
			l-53.184,36.712c-1.841,1.272-3.065,3.256-3.376,5.472c-3.048,21.688-14.152,81.176-28.84,95.864l-2.832,2.832l0.872,0.864
			c-1.175,4.163,1.246,8.49,5.409,9.666c0.718,0.203,1.461,0.302,2.207,0.294c0.664-0.046,1.32-0.175,1.952-0.384l0.864,0.864
			l2.832-2.824c14.704-14.704,73.736-26.328,95.2-29.6c2.179-0.326,4.126-1.536,5.384-3.344l41.192-59.2
			c0.706-1.059,1.14-2.277,1.264-3.544c57.528-32.823,108.837-75.505,151.584-126.096c10.745-12.804,20.322-26.544,28.616-41.056
			L473.064,146.78z M253.168,372.756c-19.376,3.095-38.545,7.369-57.4,12.8l34.048-34.056c11.925,5.725,26.234,0.699,31.959-11.226
			c4.411-9.189,2.524-20.163-4.703-27.35c-9.5-9.055-24.436-9.055-33.936,0c-7.138,7.197-8.986,18.102-4.616,27.248L184,374.676
			c5.406-19.228,9.6-38.775,12.56-58.528L247.6,280.9l40.944,40.952L253.168,372.756z M233.246,324.694
			c0.252-0.291,0.525-0.564,1.154-0.426c3.124-3.123,8.188-3.123,11.312,0c3.126,3.122,3.129,8.188,0.006,11.314
			c-0.002,0.002-0.004,0.004-0.006,0.006c-3.164,3.025-8.148,3.025-11.312,0C231.059,332.697,230.355,328.036,233.246,324.694z
			 M298.008,308.66l-42.056-42.048l6.016-9.28c6.4-9.936,13.248-19.552,20.264-29.008l55.432,55.432
			C324.832,292.577,311.613,300.879,298.008,308.66z M350.848,274.292L292,215.468c3.72-4.728,7.488-9.416,11.36-14.016
			l61.888,61.904C360.496,267.089,355.696,270.735,350.848,274.292z"/>
	</g>
</g>
<g>
	<g>
		<rect y="430.78" width="480" height="16"/>
	</g>
</g>
<g>
</g>
<g>
</g>
<g>
</g>
<g>
</g>
<g>
</g>
<g>
</g>
<g>
</g>
<g>
</g>
<g>
</g>
<g>
</g>
<g>
</g>
<g>
</g>
<g>
</g>
<g>
</g>
<g>
</g>
</svg>
