<?xml version="1.0" encoding="iso-8859-1"?>
<!-- Generator: Adobe Illustrator 19.0.0, SVG Export Plug-In . SVG Version: 6.00 Build 0)  -->
<svg version="1.1" id="Capa_1" xmlns="http://www.w3.org/2000/svg" xmlns:xlink="http://www.w3.org/1999/xlink" x="0px" y="0px"
	 viewBox="0 0 480 480" style="enable-background:new 0 0 480 480;" xml:space="preserve">
<g>
	<g>
		<path d="M424,64c-30.913-0.035-55.965-25.087-56-56c0-4.418-3.582-8-8-8s-8,3.582-8,8c-0.035,30.913-25.087,55.965-56,56
			c-4.418,0-8,3.582-8,8s3.582,8,8,8c30.913,0.035,55.965,25.087,56,56c0,4.418,3.582,8,8,8s8-3.582,8-8
			c0.035-30.913,25.087-55.965,56-56c4.418,0,8-3.582,8-8S428.418,64,424,64z M360,103.032
			C353.113,89.729,342.271,78.887,328.968,72c13.303-6.887,24.145-17.729,31.032-31.032c6.887,13.303,17.729,24.145,31.032,31.032
			C377.729,78.887,366.887,89.729,360,103.032z"/>
	</g>
</g>
<g>
	<g>
		<path d="M472,288c-22.08-0.026-39.974-17.92-40-40c0-4.418-3.582-8-8-8s-8,3.582-8,8c-0.026,8.574-2.833,16.909-8,23.752V185.64
			c0.002-3.125-1.817-5.966-4.656-7.272l-160-73.6c-2.122-0.977-4.566-0.977-6.688,0l-106.992,49.208
			c-1.075-5.932-1.632-11.947-1.664-17.976c0-4.418-3.582-8-8-8s-8,3.582-8,8c-0.028,9.436-1.344,18.824-3.912,27.904L76.656,178.4
			c-2.839,1.306-4.658,4.147-4.656,7.272v32.168C53.759,232.201,31.216,240.006,8,240c-4.418,0-8,3.582-8,8s3.582,8,8,8
			c23.203,0.036,45.73,7.824,64,22.128V472c0,4.418,3.582,8,8,8h320c4.418,0,8-3.582,8-8V320.248c5.167,6.843,7.974,15.178,8,23.752
			c0,4.418,3.582,8,8,8s8-3.582,8-8c0.026-22.08,17.92-39.974,40-40c4.418,0,8-3.582,8-8S476.418,288,472,288z M88,190.8
			l11.448-5.304C96.19,191.489,92.356,197.151,88,202.4V190.8z M51.08,248c31.641-12.254,56.659-37.266,68.92-68.904
			c12.258,31.634,37.27,56.646,68.904,68.904c-31.626,12.249-56.636,37.245-68.904,68.864C107.798,285.196,82.757,260.176,51.08,248
			z M280,464h-80V352h80V464z M392,284.608c-5.039,2.232-10.489,3.387-16,3.392c-4.418,0-8,3.582-8,8s3.582,8,8,8
			c5.511,0.005,10.961,1.16,16,3.392V464h-96V344c0-4.418-3.582-8-8-8h-96c-4.418,0-8,3.582-8,8v120H88V293.736
			c15.5,18.603,23.992,42.05,24,66.264c0,4.418,3.582,8,8,8s8-3.582,8-8c0.066-57.41,46.59-103.934,104-104c4.418,0,8-3.582,8-8
			s-3.582-8-8-8c-44.394-0.075-83.856-28.294-98.28-70.28L240,120.8l152,69.952V284.608z M424,315.2
			c-4.745-7.865-11.335-14.455-19.2-19.2c7.865-4.745,14.455-11.335,19.2-19.2c4.745,7.865,11.335,14.455,19.2,19.2
			C435.335,300.745,428.745,307.335,424,315.2z"/>
	</g>
</g>
<g>
</g>
<g>
</g>
<g>
</g>
<g>
</g>
<g>
</g>
<g>
</g>
<g>
</g>
<g>
</g>
<g>
</g>
<g>
</g>
<g>
</g>
<g>
</g>
<g>
</g>
<g>
</g>
<g>
</g>
</svg>
