<?xml version="1.0" encoding="iso-8859-1"?>
<!-- Generator: Adobe Illustrator 19.0.0, SVG Export Plug-In . SVG Version: 6.00 Build 0)  -->
<svg version="1.1" id="Capa_1" xmlns="http://www.w3.org/2000/svg" xmlns:xlink="http://www.w3.org/1999/xlink" x="0px" y="0px"
	 viewBox="0 0 480 480" style="enable-background:new 0 0 480 480;" xml:space="preserve">
<g>
	<g>
		<path d="M480,24V8h-24V0h-16v8h-56v87.6c-40.856-4.155-71.952-38.533-72-79.6V8H32V0H16v8H0v16h16v424H0v16h16v16h16v-16h408v16
			h16v-16h24v-16h-24V24H480z M232,448H32V248h200v16h-88v8c0.062,49.895,38.284,91.449,88,95.672V448z M440,448H248v-48h144V264h48
			V448z M440,248h-64v136H248v-32h-8c-41.067-0.048-75.445-31.144-79.6-72H248v-48H32V24h264.328
			c4.223,49.716,45.777,87.938,95.672,88h8V24h40V248z"/>
	</g>
</g>
<g>
	<g>
		<path d="M104,96v64h64V96H104z M152,144h-32v-32h32V144z"/>
	</g>
</g>
<g>
	<g>
		<path d="M112,40v48h48V40H112z M144,72h-16V56h16V72z"/>
	</g>
</g>
<g>
	<g>
		<path d="M176,104v48h48v-48H176z M208,136h-16v-16h16V136z"/>
	</g>
</g>
<g>
	<g>
		<path d="M112,168v48h48v-48H112z M144,200h-16v-16h16V200z"/>
	</g>
</g>
<g>
	<g>
		<path d="M48,104v48h48v-48H48z M80,136H64v-16h16V136z"/>
	</g>
</g>
<g>
</g>
<g>
</g>
<g>
</g>
<g>
</g>
<g>
</g>
<g>
</g>
<g>
</g>
<g>
</g>
<g>
</g>
<g>
</g>
<g>
</g>
<g>
</g>
<g>
</g>
<g>
</g>
<g>
</g>
</svg>
