<?xml version="1.0" encoding="iso-8859-1"?>
<!-- Generator: Adobe Illustrator 19.0.0, SVG Export Plug-In . SVG Version: 6.00 Build 0)  -->
<svg version="1.1" id="Capa_1" xmlns="http://www.w3.org/2000/svg" xmlns:xlink="http://www.w3.org/1999/xlink" x="0px" y="0px"
	 viewBox="0 0 480 480" style="enable-background:new 0 0 480 480;" xml:space="preserve">
<g>
	<g>
		<path d="M472,20H8c-4.418,0-8,3.582-8,8v184c0,4.418,3.582,8,8,8h464c4.418,0,8-3.582,8-8V28C480,23.582,476.418,20,472,20z
			 M432,204H48v-32h384V204z M464,204h-16v-40c0-4.418-3.582-8-8-8H40c-4.418,0-8,3.582-8,8v40H16V68h448V204z M464,52H16V36h448V52
			z"/>
	</g>
</g>
<g>
	<g>
		<rect x="360" y="124" width="16" height="16"/>
	</g>
</g>
<g>
	<g>
		<rect x="392" y="124" width="48" height="16"/>
	</g>
</g>
<g>
	<g>
		<rect x="40" y="84" width="56" height="16"/>
	</g>
</g>
<g>
	<g>
		<path d="M208,236v136c0,8.837-7.163,16-16,16s-16-7.163-16-16s7.163-16,16-16v-16c-17.673,0-32,14.327-32,32
			c0,17.673,14.327,32,32,32s32-14.327,32-32V236H208z"/>
	</g>
</g>
<g>
	<g>
		<path d="M48,236v104c0,8.837-7.163,16-16,16s-16-7.163-16-16s7.163-16,16-16v-16c-17.673,0-32,14.327-32,32
			c0,17.673,14.327,32,32,32s32-14.327,32-32V236H48z"/>
	</g>
</g>
<g>
	<g>
		<path d="M136,236v56c0,8.837-7.163,16-16,16s-16-7.163-16-16s7.163-16,16-16v-16c-17.673,0-32,14.327-32,32
			c0,17.673,14.327,32,32,32s32-14.327,32-32v-56H136z"/>
	</g>
</g>
<g>
	<g>
		<path d="M304,396v16c8.837,0,16,7.163,16,16s-7.163,16-16,16s-16-7.163-16-16V236h-16v192c0,17.673,14.327,32,32,32
			c17.673,0,32-14.327,32-32C336,410.327,321.673,396,304,396z"/>
	</g>
</g>
<g>
	<g>
		<path d="M448,292v16c8.837,0,16,7.163,16,16s-7.163,16-16,16s-16-7.163-16-16v-88h-16v88c0,17.673,14.327,32,32,32
			c17.673,0,32-14.327,32-32C480,306.327,465.673,292,448,292z"/>
	</g>
</g>
<g>
	<g>
		<path d="M360,268v16c8.837,0,16,7.163,16,16s-7.163,16-16,16s-16-7.163-16-16v-64h-16v64c0,17.673,14.327,32,32,32
			c17.673,0,32-14.327,32-32C392,282.327,377.673,268,360,268z"/>
	</g>
</g>
<g>
</g>
<g>
</g>
<g>
</g>
<g>
</g>
<g>
</g>
<g>
</g>
<g>
</g>
<g>
</g>
<g>
</g>
<g>
</g>
<g>
</g>
<g>
</g>
<g>
</g>
<g>
</g>
<g>
</g>
</svg>
