<?xml version="1.0" encoding="iso-8859-1"?>
<!-- Generator: Adobe Illustrator 19.0.0, SVG Export Plug-In . SVG Version: 6.00 Build 0)  -->
<svg version="1.1" id="Capa_1" xmlns="http://www.w3.org/2000/svg" xmlns:xlink="http://www.w3.org/1999/xlink" x="0px" y="0px"
	 viewBox="0 0 480 480" style="enable-background:new 0 0 480 480;" xml:space="preserve">
<g>
	<g>
		<path d="M124,260c-15.464,0-28,12.536-28,28v36h56v-36C152,272.536,139.464,260,124,260z M136,308h-24v-20c0-6.627,5.373-12,12-12
			c6.627,0,12,5.373,12,12V308z"/>
	</g>
</g>
<g>
	<g>
		<path d="M196,260c-15.464,0-28,12.536-28,28v36h56v-36C224,272.536,211.464,260,196,260z M208,308h-24v-20c0-6.627,5.373-12,12-12
			c6.627,0,12,5.373,12,12V308z"/>
	</g>
</g>
<g>
	<g>
		<path d="M268,260c-15.464,0-28,12.536-28,28v36h56v-36C296,272.536,283.464,260,268,260z M280,308h-24v-20c0-6.627,5.373-12,12-12
			c6.627,0,12,5.373,12,12V308z"/>
	</g>
</g>
<g>
	<g>
		<path d="M284,148c-15.464,0-28,12.536-28,28v36h56v-36C312,160.536,299.464,148,284,148z M296,196h-24v-20c0-6.627,5.373-12,12-12
			c6.627,0,12,5.373,12,12V196z"/>
	</g>
</g>
<g>
	<g>
		<path d="M324,36c-15.464,0-28,12.536-28,28v36h56V64C352,48.536,339.464,36,324,36z M336,84h-24V64c0-6.627,5.373-12,12-12
			c6.627,0,12,5.373,12,12V84z"/>
	</g>
</g>
<g>
	<g>
		<path d="M364,148c-15.464,0-28,12.536-28,28v36h56v-36C392,160.536,379.464,148,364,148z M376,196h-24v-20c0-6.627,5.373-12,12-12
			c6.627,0,12,5.373,12,12V196z"/>
	</g>
</g>
<g>
	<g>
		<path d="M464,356V228h-40V116h-24V4H248v112h-24v112h-16v-24h-16v24h-16v-24h-16v24h-16V76h48c4.418,0,8-3.582,8-8V20
			c0-4.418-3.582-8-8-8h-56c-4.418,0-8,3.582-8,8v208h-16v-24H96v24H80v-24H64v40H24c-4.418,0-8,3.582-8,8v104H0v120h104h376V356
			H464z M144,28h40v32h-40V28z M424,244h24v112h-24V244z M264,20h120v96H264V20z M240,132h168v224h-80V228h-88V132z M80,244h232v112
			H80V244z M32,260h32v88H32V260z M88,460H48v-36c0-11.046,8.954-20,20-20s20,8.954,20,20V460z M176,460h-40v-36
			c0-11.046,8.954-20,20-20s20,8.954,20,20V460z M264,460h-40v-36c0-11.046,8.954-20,20-20s20,8.954,20,20V460z M352,460h-40v-36
			c0-11.046,8.954-20,20-20c11.046,0,20,8.954,20,20V460z M464,460h-96v-36c0-19.882-16.118-36-36-36s-36,16.118-36,36v36h-16v-36
			c0-19.882-16.118-36-36-36s-36,16.118-36,36v36h-16v-36c0-19.882-16.118-36-36-36s-36,16.118-36,36v36h-16v-36
			c0-19.882-16.118-36-36-36s-36,16.118-36,36v36H16v-88h448V460z"/>
	</g>
</g>
<g>
	<g>
		<rect x="384" y="388" width="16" height="16"/>
	</g>
</g>
<g>
	<g>
		<rect x="416" y="388" width="16" height="16"/>
	</g>
</g>
<g>
	<g>
		<rect x="384" y="412" width="16" height="16"/>
	</g>
</g>
<g>
	<g>
		<rect x="416" y="412" width="16" height="16"/>
	</g>
</g>
<g>
	<g>
		<rect x="384" y="436" width="16" height="16"/>
	</g>
</g>
<g>
	<g>
		<rect x="416" y="436" width="16" height="16"/>
	</g>
</g>
<g>
	<g>
		<rect x="344" y="252" width="16" height="16"/>
	</g>
</g>
<g>
	<g>
		<rect x="376" y="252" width="16" height="16"/>
	</g>
</g>
<g>
	<g>
		<rect x="344" y="284" width="16" height="16"/>
	</g>
</g>
<g>
	<g>
		<rect x="376" y="284" width="16" height="16"/>
	</g>
</g>
<g>
	<g>
		<rect x="344" y="316" width="16" height="16"/>
	</g>
</g>
<g>
	<g>
		<rect x="376" y="316" width="16" height="16"/>
	</g>
</g>
<g>
</g>
<g>
</g>
<g>
</g>
<g>
</g>
<g>
</g>
<g>
</g>
<g>
</g>
<g>
</g>
<g>
</g>
<g>
</g>
<g>
</g>
<g>
</g>
<g>
</g>
<g>
</g>
<g>
</g>
</svg>
