<?xml version="1.0" encoding="iso-8859-1"?>
<!-- Generator: Adobe Illustrator 19.0.0, SVG Export Plug-In . SVG Version: 6.00 Build 0)  -->
<svg version="1.1" id="Capa_1" xmlns="http://www.w3.org/2000/svg" xmlns:xlink="http://www.w3.org/1999/xlink" x="0px" y="0px"
	 viewBox="0 0 479.952 479.952" style="enable-background:new 0 0 479.952 479.952;" xml:space="preserve">
<g>
	<g>
		<path d="M323.552,360.792l-80-40c-2.251-1.125-4.901-1.125-7.152,0l-80,40c-2.712,1.355-4.425,4.128-4.424,7.16v104
			c0,4.418,3.582,8,8,8h160c4.418,0,8-3.582,8-8v-104C327.977,364.92,326.264,362.147,323.552,360.792z M255.976,463.952h-32v-40h32
			V463.952z M311.976,463.952h-40v-48c0-4.418-3.582-8-8-8h-48c-4.418,0-8,3.582-8,8v48h-40v-91.056l72-36l72,36V463.952z"/>
	</g>
</g>
<g>
	<g>
		<path d="M347.328,296.688l-104-48c-2.127-0.981-4.577-0.981-6.704,0l-104,48c-2.833,1.308-4.648,4.143-4.648,7.264v40
			c0,4.418,3.582,8,8,8c1.157,0,2.301-0.251,3.352-0.736l100.648-46.464L340.624,351.2c1.049,0.493,2.193,0.75,3.352,0.752
			c4.418,0,8-3.582,8-8v-40C351.976,300.831,350.162,297.996,347.328,296.688z M335.976,331.456l-92.648-42.768
			c-2.127-0.981-4.577-0.981-6.704,0l-92.648,42.768v-22.4l96-44.304l96,44.32V331.456z"/>
	</g>
</g>
<g>
	<g>
		<path d="M327.976,88.024c0.235-47.506-37.428-86.546-84.912-88.016c-30.581-0.41-59.233,14.901-75.888,40.552
			c-11.112,15.542-16.417,34.491-14.992,53.544c-0.268,1.18-0.268,2.404,0,3.584l1.152,5.152c0.462,2.735,1.063,5.445,1.8,8.12
			c8.755,39.847,30.084,75.827,60.84,102.632l18.72,16.384c2.848,2.495,7.054,2.652,10.08,0.376l7.88-5.912
			c37.73-28.261,63.697-69.458,72.92-115.688l2.24-11.2c0.206-1.036,0.179-2.104-0.08-3.128
			C327.896,92.291,327.976,90.157,327.976,88.024z M311.616,95.152c-0.062,0.532-0.062,1.068,0,1.6l-1.76,8.8
			c-8.456,42.372-32.254,80.131-66.832,106.04l-2.696,2.024l-13.808-12.064c-28.283-24.671-47.876-57.789-55.88-94.456
			c-0.632-2.28-1.144-4.592-1.6-7.328l-0.672-3.04c0.055-0.532,0.055-1.068,0-1.6c-1.71-16.163,2.577-32.391,12.048-45.6
			c13.59-21.072,37.016-33.725,62.089-33.536c38.826,1.209,69.628,33.116,69.471,71.96
			C311.976,90.352,311.848,92.752,311.616,95.152z"/>
	</g>
</g>
<g>
	<g>
		<path d="M239.976,47.952c-22.091,0-40,17.909-40,40c0.026,22.08,17.92,39.974,40,40c22.091,0,40-17.909,40-40
			S262.067,47.952,239.976,47.952z M239.976,111.952c-13.255,0-24-10.745-24-24s10.745-24,24-24s24,10.745,24,24
			S253.231,111.952,239.976,111.952z"/>
	</g>
</g>
<g>
</g>
<g>
</g>
<g>
</g>
<g>
</g>
<g>
</g>
<g>
</g>
<g>
</g>
<g>
</g>
<g>
</g>
<g>
</g>
<g>
</g>
<g>
</g>
<g>
</g>
<g>
</g>
<g>
</g>
</svg>
