<?xml version="1.0" encoding="iso-8859-1"?>
<!-- Generator: Adobe Illustrator 19.0.0, SVG Export Plug-In . SVG Version: 6.00 Build 0)  -->
<svg version="1.1" id="Capa_1" xmlns="http://www.w3.org/2000/svg" xmlns:xlink="http://www.w3.org/1999/xlink" x="0px" y="0px"
	 viewBox="0 0 488 488" style="enable-background:new 0 0 488 488;" xml:space="preserve">
<g>
	<g>
		<path d="M333.667,203.312c-9.751-9.751-25.561-9.751-35.312,0h-0.008l-152,152c-9.922,9.583-10.196,25.395-0.613,35.316
			s25.395,10.196,35.316,0.613c0.209-0.202,0.415-0.408,0.617-0.617l152-152C343.418,228.873,343.418,213.063,333.667,203.312z
			 M322.355,227.312h-0.008l-152,152c-3.547,3.39-9.133,3.39-12.68,0c-3.504-3.488-3.516-9.156-0.028-12.66
			c0.009-0.009,0.019-0.019,0.028-0.028l152-152c3.504-3.504,9.184-3.504,12.688,0C325.859,218.128,325.859,223.808,322.355,227.312
			z"/>
	</g>
</g>
<g>
	<g>
		<path d="M184.003,200.968c-22.091,0-40,17.909-40,40c0.026,22.08,17.92,39.974,40,40c22.091,0,40-17.909,40-40
			C224.003,218.877,206.094,200.968,184.003,200.968z M184.003,264.968c-13.255,0-24-10.745-24-24s10.745-24,24-24v0
			c13.255,0,24,10.745,24,24S197.258,264.968,184.003,264.968z"/>
	</g>
</g>
<g>
	<g>
		<path d="M296.003,312.968c-22.091,0-40,17.909-40,40c0,22.091,17.909,40,40,40c22.091,0,40-17.909,40-40
			C335.976,330.888,318.083,312.995,296.003,312.968z M296.003,376.968c-13.255,0-24-10.745-24-24s10.745-24,24-24s24,10.745,24,24
			S309.258,376.968,296.003,376.968z"/>
	</g>
</g>
<g>
	<g>
		<path d="M484.123,181.144l-240-144c-2.57-1.545-5.787-1.523-8.336,0.056l-232,144c-3.756,2.327-4.913,7.259-2.586,11.014
			c1.459,2.354,4.032,3.786,6.802,3.786h64v248c0,4.418,3.582,8,8,8h320c4.418,0,8-3.582,8-8V196h72
			c4.418-0.001,7.999-3.584,7.997-8.003C487.999,185.191,486.528,182.59,484.123,181.144z M392.003,436h-304V192.528l152-91.2
			l152,91.2V436z M402.219,180L244.123,85.144c-2.535-1.523-5.705-1.523-8.24,0L77.787,180H36.059l204-126.624L451.123,180H402.219z
			"/>
	</g>
</g>
<g>
</g>
<g>
</g>
<g>
</g>
<g>
</g>
<g>
</g>
<g>
</g>
<g>
</g>
<g>
</g>
<g>
</g>
<g>
</g>
<g>
</g>
<g>
</g>
<g>
</g>
<g>
</g>
<g>
</g>
</svg>
