<?xml version="1.0" encoding="iso-8859-1"?>
<!-- Generator: Adobe Illustrator 19.0.0, SVG Export Plug-In . SVG Version: 6.00 Build 0)  -->
<svg version="1.1" id="Capa_1" xmlns="http://www.w3.org/2000/svg" xmlns:xlink="http://www.w3.org/1999/xlink" x="0px" y="0px"
	 viewBox="0 0 480 480" style="enable-background:new 0 0 480 480;" xml:space="preserve">
<g>
	<g>
		<rect x="136" y="80" width="16" height="16"/>
	</g>
</g>
<g>
	<g>
		<rect x="168" y="80" width="16" height="16"/>
	</g>
</g>
<g>
	<g>
		<path d="M432,416V128h-32V48H264v80h-48V48H80v80H48v288H0v16h480v-16H432z M112,416h-8v-40H72v40h-8V144h48V416z M112,128H96V64
			h104v64h-72v-24h-16V128z M128,232v-64h64v64H128z M192,248v64h-64v-64H192z M208,416h-56v-8h56V416z M208,392h-56v-8h56V392z
			 M208,368h-56v-8h56V368z M232,416h-8v-64c0-4.418-3.582-8-8-8h-72c-4.418,0-8,3.582-8,8v64h-8v-88h72c4.418,0,8-3.582,8-8V160
			c0-4.418-3.582-8-8-8h-72v-8h104V416z M296,416h-8v-40h-32v40h-8V144h48V416z M296,128h-16V64h104v64h-72v-24h-16V128z M312,232
			v-64h64v64H312z M376,248v64h-64v-64H376z M392,416h-56v-8h56V416z M392,392h-56v-8h56V392z M392,368h-56v-8h56V368z M416,416h-8
			v-64c0-4.418-3.582-8-8-8h-72c-4.418,0-8,3.582-8,8v64h-8v-88h72c4.418,0,8-3.582,8-8V160c0-4.418-3.582-8-8-8h-72v-8h104V416z"/>
	</g>
</g>
<g>
	<g>
		<rect x="320" y="80" width="16" height="16"/>
	</g>
</g>
<g>
	<g>
		<rect x="352" y="80" width="16" height="16"/>
	</g>
</g>
<g>
	<g>
		<rect x="80" y="176" width="16" height="16"/>
	</g>
</g>
<g>
	<g>
		<rect x="80" y="272" width="16" height="16"/>
	</g>
</g>
<g>
	<g>
		<rect x="264" y="176" width="16" height="16"/>
	</g>
</g>
<g>
	<g>
		<rect x="264" y="272" width="16" height="16"/>
	</g>
</g>
<g>
</g>
<g>
</g>
<g>
</g>
<g>
</g>
<g>
</g>
<g>
</g>
<g>
</g>
<g>
</g>
<g>
</g>
<g>
</g>
<g>
</g>
<g>
</g>
<g>
</g>
<g>
</g>
<g>
</g>
</svg>
