<?xml version="1.0" encoding="iso-8859-1"?>
<!-- Generator: Adobe Illustrator 19.0.0, SVG Export Plug-In . SVG Version: 6.00 Build 0)  -->
<svg version="1.1" id="Capa_1" xmlns="http://www.w3.org/2000/svg" xmlns:xlink="http://www.w3.org/1999/xlink" x="0px" y="0px"
	 viewBox="0 0 480 480" style="enable-background:new 0 0 480 480;" xml:space="preserve">
<g>
	<g>
		<path d="M440,360.042v-72h16c4.418-0.003,7.997-3.588,7.994-8.006c-0.002-2.607-1.274-5.05-3.41-6.546l-80-56
			c-2.753-1.925-6.415-1.925-9.168,0l-80,56c-3.619,2.535-4.497,7.524-1.962,11.142c1.496,2.135,3.939,3.408,6.546,3.41h16v72h-72
			v-98.76c24.902,8.897,52.301-4.078,61.198-28.979c7.034-19.689,0.48-41.665-16.19-54.285c1.99-5.784,3.001-11.859,2.992-17.976
			c0.046-30.928-24.988-56.037-55.916-56.084c-30.928-0.046-56.037,24.988-56.084,55.916c-0.009,6.262,1.032,12.482,3.08,18.4
			c-20.885,7.118-32.046,29.819-24.928,50.704c5.519,16.195,20.738,27.077,37.848,27.064c9.782,0.032,19.226-3.575,26.496-10.12
			c1.672,2.061,3.513,3.98,5.504,5.736v108.384h-64v-72h16c4.418-0.004,7.997-3.588,7.994-8.006c-0.002-2.607-1.274-5.05-3.41-6.546
			l-80-56c-2.753-1.925-6.415-1.925-9.168,0l-80,56c-3.619,2.535-4.497,7.524-1.962,11.142c1.496,2.135,3.939,3.408,6.546,3.41h16
			v72H0v16h480v-16H440z M104,360.042H88v-32h16V360.042z M144,360.042h-24v-48H72v48H48v-72h96V360.042z M41.376,272.042L96,233.81
			l54.624,38.232H41.376z M224,225.242l-17.752-22.2l-12.496,10l15.512,19.384c-4.438,4.839-10.698,7.601-17.264,7.616
			c-13.224,0-23.944-10.72-23.944-23.944c0-12.807,10.078-23.347,22.872-23.92c4.413-0.209,7.821-3.957,7.612-8.37
			c-0.061-1.278-0.427-2.523-1.068-3.63c-11.173-19.058-4.781-43.564,14.276-54.737s43.564-4.781,54.737,14.276
			c6.797,11.594,7.318,25.826,1.386,37.885c-1.881,3.841-0.408,8.483,3.344,10.536c15.683,7.983,21.926,27.168,13.943,42.851
			s-27.168,21.926-42.851,13.943c-0.787-0.401-1.557-0.834-2.308-1.298v-67.592h-16V225.242z M384,360.042h-16v-32h16V360.042z
			 M424,360.042h-24v-48h-48v48h-24v-72h96V360.042z M321.376,272.042L376,233.81l54.624,38.232H321.376z"/>
	</g>
</g>
<g>
</g>
<g>
</g>
<g>
</g>
<g>
</g>
<g>
</g>
<g>
</g>
<g>
</g>
<g>
</g>
<g>
</g>
<g>
</g>
<g>
</g>
<g>
</g>
<g>
</g>
<g>
</g>
<g>
</g>
</svg>
