<?xml version="1.0" encoding="iso-8859-1"?>
<!-- Generator: Adobe Illustrator 19.0.0, SVG Export Plug-In . SVG Version: 6.00 Build 0)  -->
<svg version="1.1" id="Capa_1" xmlns="http://www.w3.org/2000/svg" xmlns:xlink="http://www.w3.org/1999/xlink" x="0px" y="0px"
	 viewBox="0 0 480.856 480.856" style="enable-background:new 0 0 480.856 480.856;" xml:space="preserve">
<g>
	<g>
		<path d="M168.428,336.856h-64c-4.418,0-8,3.582-8,8v64c0,4.418,3.582,8,8,8h64c4.418,0,8-3.582,8-8v-64
			C176.428,340.438,172.846,336.856,168.428,336.856z M160.428,400.856h-48v-48h48V400.856z"/>
	</g>
</g>
<g>
	<g>
		<path d="M184.428,136.856h-64c-4.418,0-8,3.582-8,8v64c0,4.418,3.582,8,8,8h64c4.418,0,8-3.582,8-8v-64
			C192.428,140.438,188.846,136.856,184.428,136.856z M176.428,200.856h-48v-48h48V200.856z"/>
	</g>
</g>
<g>
	<g>
		<path d="M376.428,336.856h-64c-4.418,0-8,3.582-8,8v64c0,4.418,3.582,8,8,8h64c4.418,0,8-3.582,8-8v-64
			C384.428,340.438,380.846,336.856,376.428,336.856z M368.428,400.856h-48v-48h48V400.856z"/>
	</g>
</g>
<g>
	<g>
		<path d="M389.348,70.912L243.868,1.656L240.428,0l-3.424,1.6L91.524,70.88L64.428,83.8v397.056h216h136V83.8L389.348,70.912z
			 M240.428,17.712l132.584,63.144H107.844L240.428,17.712z M272.428,464.856h-64v-112h64V464.856z M400.428,464.856h-112v-120
			c0-4.418-3.582-8-8-8h-80c-4.418,0-8,3.582-8,8v120h-112v-176h320V464.856z M400.428,272.856h-152v-72h32h120V272.856z
			 M288.428,184.856v-32h64v32H288.428z M400.428,184.856h-32v-40c0-4.418-3.582-8-8-8h-80c-4.418,0-8,3.582-8,8v40h-40v88h-152
			v-176h320V184.856z"/>
	</g>
</g>
<g>
</g>
<g>
</g>
<g>
</g>
<g>
</g>
<g>
</g>
<g>
</g>
<g>
</g>
<g>
</g>
<g>
</g>
<g>
</g>
<g>
</g>
<g>
</g>
<g>
</g>
<g>
</g>
<g>
</g>
</svg>
