<?xml version="1.0" encoding="iso-8859-1"?>
<!-- Generator: Adobe Illustrator 19.0.0, SVG Export Plug-In . SVG Version: 6.00 Build 0)  -->
<svg version="1.1" id="Capa_1" xmlns="http://www.w3.org/2000/svg" xmlns:xlink="http://www.w3.org/1999/xlink" x="0px" y="0px"
	 viewBox="0 0 479.999 479.999" style="enable-background:new 0 0 479.999 479.999;" xml:space="preserve">
<g>
	<g>
		<path d="M477.655,278.429l-32-32c-1.5-1.5-3.534-2.344-5.656-2.344h-176v-88h176c1.731,0,3.415-0.561,4.8-1.6l32-24
			c3.534-2.651,4.25-7.666,1.598-11.2c-0.227-0.302-0.475-0.588-0.742-0.856l-32-32c-1.5-1.5-3.534-2.344-5.656-2.344h-176v-24
			c-0.033-0.84-0.2-1.669-0.496-2.456c11.993-12.981,11.192-33.226-1.789-45.219s-33.226-11.192-45.219,1.789
			c-11.328,12.261-11.328,31.17,0,43.431c-0.296,0.787-0.463,1.616-0.496,2.456v32v72h-176c-2.122,0-4.156,0.844-5.656,2.344l-32,32
			c-3.124,3.124-3.124,8.19,0,11.314c0.267,0.267,0.553,0.515,0.856,0.742l32,24c1.385,1.039,3.069,1.6,4.8,1.6h176v232
			c0,4.418,3.582,8,8,8h32c4.418,0,8-3.582,8-8v-152h176c1.731,0,3.415-0.561,4.8-1.6l32-24c3.534-2.651,4.25-7.666,1.598-11.2
			C478.17,278.982,477.922,278.696,477.655,278.429z M263.999,100.085h172.688l23.136,23.136l-22.488,16.864H263.999V100.085z
			 M215.999,220.085H42.663l-22.488-16.864l23.136-23.136h172.688V220.085z M247.999,460.085h-16v-144h16V460.085z M247.999,300.085
			h-16v-40h16V300.085z M247.999,244.085h-16v-8h16V244.085z M247.999,220.085h-16v-40h16V220.085z M247.999,164.085h-16v-8h16
			V164.085z M247.999,140.085h-16v-40h16V140.085z M247.999,84.085h-16v-16h16V84.085z M239.999,52.085c-8.837,0-16-7.163-16-16
			s7.163-16,16-16s16,7.163,16,16S248.836,52.085,239.999,52.085z M437.335,300.085H263.999v-40h172.688l23.136,23.136
			L437.335,300.085z"/>
	</g>
</g>
<g>
</g>
<g>
</g>
<g>
</g>
<g>
</g>
<g>
</g>
<g>
</g>
<g>
</g>
<g>
</g>
<g>
</g>
<g>
</g>
<g>
</g>
<g>
</g>
<g>
</g>
<g>
</g>
<g>
</g>
</svg>
