<?xml version="1.0" encoding="iso-8859-1"?>
<!-- Generator: Adobe Illustrator 19.0.0, SVG Export Plug-In . SVG Version: 6.00 Build 0)  -->
<svg version="1.1" id="Capa_1" xmlns="http://www.w3.org/2000/svg" xmlns:xlink="http://www.w3.org/1999/xlink" x="0px" y="0px"
	 viewBox="0 0 480 480" style="enable-background:new 0 0 480 480;" xml:space="preserve">
<g>
	<g>
		<rect x="152" y="96" width="16" height="16"/>
	</g>
</g>
<g>
	<g>
		<rect x="184" y="96" width="16" height="16"/>
	</g>
</g>
<g>
	<g>
		<rect x="216" y="96" width="16" height="16"/>
	</g>
</g>
<g>
	<g>
		<rect x="248" y="96" width="16" height="16"/>
	</g>
</g>
<g>
	<g>
		<rect x="280" y="96" width="16" height="16"/>
	</g>
</g>
<g>
	<g>
		<rect x="312" y="96" width="16" height="16"/>
	</g>
</g>
<g>
	<g>
		<rect x="152" y="128" width="16" height="16"/>
	</g>
</g>
<g>
	<g>
		<rect x="184" y="128" width="16" height="16"/>
	</g>
</g>
<g>
	<g>
		<rect x="216" y="128" width="16" height="16"/>
	</g>
</g>
<g>
	<g>
		<rect x="248" y="128" width="16" height="16"/>
	</g>
</g>
<g>
	<g>
		<rect x="280" y="128" width="16" height="16"/>
	</g>
</g>
<g>
	<g>
		<rect x="312" y="128" width="16" height="16"/>
	</g>
</g>
<g>
	<g>
		<rect x="152" y="160" width="16" height="16"/>
	</g>
</g>
<g>
	<g>
		<rect x="184" y="160" width="16" height="16"/>
	</g>
</g>
<g>
	<g>
		<rect x="216" y="160" width="16" height="16"/>
	</g>
</g>
<g>
	<g>
		<rect x="248" y="160" width="16" height="16"/>
	</g>
</g>
<g>
	<g>
		<rect x="280" y="160" width="16" height="16"/>
	</g>
</g>
<g>
	<g>
		<rect x="312" y="160" width="16" height="16"/>
	</g>
</g>
<g>
	<g>
		<rect x="152" y="192" width="16" height="16"/>
	</g>
</g>
<g>
	<g>
		<rect x="184" y="192" width="16" height="16"/>
	</g>
</g>
<g>
	<g>
		<rect x="216" y="192" width="16" height="16"/>
	</g>
</g>
<g>
	<g>
		<rect x="248" y="192" width="16" height="16"/>
	</g>
</g>
<g>
	<g>
		<rect x="280" y="192" width="16" height="16"/>
	</g>
</g>
<g>
	<g>
		<rect x="312" y="192" width="16" height="16"/>
	</g>
</g>
<g>
	<g>
		<rect x="152" y="224" width="16" height="16"/>
	</g>
</g>
<g>
	<g>
		<rect x="184" y="224" width="16" height="16"/>
	</g>
</g>
<g>
	<g>
		<rect x="216" y="224" width="16" height="16"/>
	</g>
</g>
<g>
	<g>
		<rect x="248" y="224" width="16" height="16"/>
	</g>
</g>
<g>
	<g>
		<rect x="280" y="224" width="16" height="16"/>
	</g>
</g>
<g>
	<g>
		<rect x="312" y="224" width="16" height="16"/>
	</g>
</g>
<g>
	<g>
		<rect x="152" y="256" width="16" height="16"/>
	</g>
</g>
<g>
	<g>
		<rect x="184" y="256" width="16" height="16"/>
	</g>
</g>
<g>
	<g>
		<rect x="216" y="256" width="16" height="16"/>
	</g>
</g>
<g>
	<g>
		<rect x="248" y="256" width="16" height="16"/>
	</g>
</g>
<g>
	<g>
		<rect x="280" y="256" width="16" height="16"/>
	</g>
</g>
<g>
	<g>
		<rect x="312" y="256" width="16" height="16"/>
	</g>
</g>
<g>
	<g>
		<rect x="152" y="288" width="16" height="16"/>
	</g>
</g>
<g>
	<g>
		<rect x="184" y="288" width="16" height="16"/>
	</g>
</g>
<g>
	<g>
		<rect x="216" y="288" width="16" height="16"/>
	</g>
</g>
<g>
	<g>
		<rect x="248" y="288" width="16" height="16"/>
	</g>
</g>
<g>
	<g>
		<rect x="280" y="288" width="16" height="16"/>
	</g>
</g>
<g>
	<g>
		<rect x="312" y="288" width="16" height="16"/>
	</g>
</g>
<g>
	<g>
		<rect x="152" y="320" width="16" height="16"/>
	</g>
</g>
<g>
	<g>
		<rect x="184" y="320" width="16" height="16"/>
	</g>
</g>
<g>
	<g>
		<rect x="216" y="320" width="16" height="16"/>
	</g>
</g>
<g>
	<g>
		<rect x="248" y="320" width="16" height="16"/>
	</g>
</g>
<g>
	<g>
		<rect x="280" y="320" width="16" height="16"/>
	</g>
</g>
<g>
	<g>
		<rect x="312" y="320" width="16" height="16"/>
	</g>
</g>
<g>
	<g>
		<rect x="152" y="352" width="16" height="16"/>
	</g>
</g>
<g>
	<g>
		<rect x="184" y="352" width="16" height="16"/>
	</g>
</g>
<g>
	<g>
		<rect x="216" y="352" width="16" height="16"/>
	</g>
</g>
<g>
	<g>
		<rect x="248" y="352" width="16" height="16"/>
	</g>
</g>
<g>
	<g>
		<rect x="280" y="352" width="16" height="16"/>
	</g>
</g>
<g>
	<g>
		<rect x="312" y="352" width="16" height="16"/>
	</g>
</g>
<g>
	<g>
		<rect x="152" y="384" width="16" height="16"/>
	</g>
</g>
<g>
	<g>
		<rect x="184" y="384" width="16" height="16"/>
	</g>
</g>
<g>
	<g>
		<rect x="216" y="384" width="16" height="16"/>
	</g>
</g>
<g>
	<g>
		<rect x="248" y="384" width="16" height="16"/>
	</g>
</g>
<g>
	<g>
		<rect x="280" y="384" width="16" height="16"/>
	</g>
</g>
<g>
	<g>
		<rect x="312" y="384" width="16" height="16"/>
	</g>
</g>
<g>
	<g>
		<rect x="152" y="416" width="16" height="16"/>
	</g>
</g>
<g>
	<g>
		<rect x="184" y="416" width="16" height="16"/>
	</g>
</g>
<g>
	<g>
		<rect x="216" y="416" width="16" height="16"/>
	</g>
</g>
<g>
	<g>
		<rect x="248" y="416" width="16" height="16"/>
	</g>
</g>
<g>
	<g>
		<rect x="280" y="416" width="16" height="16"/>
	</g>
</g>
<g>
	<g>
		<rect x="312" y="416" width="16" height="16"/>
	</g>
</g>
<g>
	<g>
		<path d="M376,112v96h-16V64H256V0h-16v64h-16V24h-16v40h-88v80H0v336h480V112H376z M120,464H16V160h104V464z M344,464h-80v-16h-48
			v16h-80V80h208V464z M408,464h-48V224h48V464z M464,464h-40v-16h24v-16h-24v-16h24v-16h-24v-16h24v-16h-24v-16h24v-16h-24v-16h24
			v-16h-24v-16h24v-16h-24v-16h24v-16h-24v-16h24v-16h-56v-80h72V464z"/>
	</g>
</g>
<g>
	<g>
		<rect x="32" y="176" width="16" height="16"/>
	</g>
</g>
<g>
	<g>
		<rect x="64" y="176" width="16" height="16"/>
	</g>
</g>
<g>
	<g>
		<rect x="96" y="176" width="16" height="16"/>
	</g>
</g>
<g>
	<g>
		<rect x="32" y="208" width="16" height="16"/>
	</g>
</g>
<g>
	<g>
		<rect x="64" y="208" width="16" height="16"/>
	</g>
</g>
<g>
	<g>
		<rect x="96" y="208" width="16" height="16"/>
	</g>
</g>
<g>
	<g>
		<rect x="32" y="240" width="16" height="16"/>
	</g>
</g>
<g>
	<g>
		<rect x="64" y="240" width="16" height="16"/>
	</g>
</g>
<g>
	<g>
		<rect x="96" y="240" width="16" height="16"/>
	</g>
</g>
<g>
	<g>
		<rect x="32" y="272" width="16" height="16"/>
	</g>
</g>
<g>
	<g>
		<rect x="64" y="272" width="16" height="16"/>
	</g>
</g>
<g>
	<g>
		<rect x="96" y="272" width="16" height="16"/>
	</g>
</g>
<g>
	<g>
		<rect x="32" y="304" width="16" height="16"/>
	</g>
</g>
<g>
	<g>
		<rect x="64" y="304" width="16" height="16"/>
	</g>
</g>
<g>
	<g>
		<rect x="96" y="304" width="16" height="16"/>
	</g>
</g>
<g>
	<g>
		<rect x="32" y="336" width="16" height="16"/>
	</g>
</g>
<g>
	<g>
		<rect x="64" y="336" width="16" height="16"/>
	</g>
</g>
<g>
	<g>
		<rect x="96" y="336" width="16" height="16"/>
	</g>
</g>
<g>
	<g>
		<rect x="32" y="368" width="16" height="16"/>
	</g>
</g>
<g>
	<g>
		<rect x="64" y="368" width="16" height="16"/>
	</g>
</g>
<g>
	<g>
		<rect x="96" y="368" width="16" height="16"/>
	</g>
</g>
<g>
	<g>
		<rect x="32" y="400" width="16" height="16"/>
	</g>
</g>
<g>
	<g>
		<rect x="64" y="400" width="16" height="16"/>
	</g>
</g>
<g>
	<g>
		<rect x="96" y="400" width="16" height="16"/>
	</g>
</g>
<g>
	<g>
		<rect x="32" y="432" width="16" height="16"/>
	</g>
</g>
<g>
	<g>
		<rect x="64" y="432" width="16" height="16"/>
	</g>
</g>
<g>
	<g>
		<rect x="96" y="432" width="16" height="16"/>
	</g>
</g>
<g>
	<g>
		<rect x="408" y="144" width="40" height="16"/>
	</g>
</g>
<g>
	<g>
		<rect x="408" y="176" width="40" height="16"/>
	</g>
</g>
<g>
	<g>
		<rect x="376" y="240" width="16" height="16"/>
	</g>
</g>
<g>
	<g>
		<rect x="376" y="272" width="16" height="16"/>
	</g>
</g>
<g>
	<g>
		<rect x="376" y="304" width="16" height="16"/>
	</g>
</g>
<g>
	<g>
		<rect x="376" y="336" width="16" height="16"/>
	</g>
</g>
<g>
	<g>
		<rect x="376" y="368" width="16" height="16"/>
	</g>
</g>
<g>
	<g>
		<rect x="376" y="400" width="16" height="16"/>
	</g>
</g>
<g>
	<g>
		<rect x="376" y="432" width="16" height="16"/>
	</g>
</g>
<g>
</g>
<g>
</g>
<g>
</g>
<g>
</g>
<g>
</g>
<g>
</g>
<g>
</g>
<g>
</g>
<g>
</g>
<g>
</g>
<g>
</g>
<g>
</g>
<g>
</g>
<g>
</g>
<g>
</g>
</svg>
