<?xml version="1.0" encoding="iso-8859-1"?>
<!-- Generator: Adobe Illustrator 19.0.0, SVG Export Plug-In . SVG Version: 6.00 Build 0)  -->
<svg version="1.1" id="Capa_1" xmlns="http://www.w3.org/2000/svg" xmlns:xlink="http://www.w3.org/1999/xlink" x="0px" y="0px"
	 viewBox="0 0 480 480" style="enable-background:new 0 0 480 480;" xml:space="preserve">
<g>
	<g>
		<path d="M448,0H32C14.327,0,0,14.327,0,32v288c0,17.673,14.327,32,32,32h123.056l-40,80H88c-4.418,0-8,3.582-8,8v32
			c0,4.418,3.582,8,8,8h304c4.418,0,8-3.582,8-8v-32c0-4.418-3.582-8-8-8h-19.408l-46.664-80H448c17.673,0,32-14.327,32-32V32
			C480,14.327,465.673,0,448,0z M384,448v16H96v-16H384z M354.072,432H132.944l40-80h134.464L354.072,432z M464,320
			c0,8.837-7.163,16-16,16H32c-8.837,0-16-7.163-16-16v-8h448V320z M464,296H16V56h448V296z M464,40H16v-8c0-8.837,7.163-16,16-16
			h416c8.837,0,16,7.163,16,16V40z"/>
	</g>
</g>
<g>
	<g>
		<path d="M188.648,145.488l-56-40c-2.781-1.985-6.515-1.985-9.296,0l-56,40c-3.596,2.566-4.432,7.563-1.865,11.159
			C66.989,158.751,69.415,160,72,160h8v56c0,4.418,3.582,8,8,8h80c4.418,0,8-3.582,8-8v-56h8c4.418,0.001,8-3.581,8.001-7.999
			C192.001,149.416,190.752,146.99,188.648,145.488z M128,121.832L159.032,144H96.968L128,121.832z M160,208h-24v-24h-16v24H96v-48
			h64V208z"/>
	</g>
</g>
<g>
	<g>
		<path d="M216,72H40c-4.418,0-8,3.582-8,8v168c0,4.418,3.582,8,8,8h176c4.418,0,8-3.582,8-8V80C224,75.582,220.418,72,216,72z
			 M208,240H48V88h160V240z"/>
	</g>
</g>
<g>
	<g>
		<rect x="248" y="80" width="192" height="16"/>
	</g>
</g>
<g>
	<g>
		<rect x="248" y="112" width="192" height="16"/>
	</g>
</g>
<g>
	<g>
		<rect x="248" y="144" width="104" height="16"/>
	</g>
</g>
<g>
	<g>
		<rect x="248" y="176" width="104" height="16"/>
	</g>
</g>
<g>
	<g>
		<path d="M296,216h-40c-4.418,0-8,3.582-8,8v40c0,4.418,3.582,8,8,8h40c4.418,0,8-3.582,8-8v-40C304,219.582,300.418,216,296,216z
			 M288,256h-24v-24h24V256z"/>
	</g>
</g>
<g>
	<g>
		<path d="M368,216h-40c-4.418,0-8,3.582-8,8v40c0,4.418,3.582,8,8,8h40c4.418,0,8-3.582,8-8v-40C376,219.582,372.418,216,368,216z
			 M360,256h-24v-24h24V256z"/>
	</g>
</g>
<g>
	<g>
		<path d="M440,216h-40c-4.418,0-8,3.582-8,8v40c0,4.418,3.582,8,8,8h40c4.418,0,8-3.582,8-8v-40C448,219.582,444.418,216,440,216z
			 M432,256h-24v-24h24V256z"/>
	</g>
</g>
<g>
	<g>
		<rect x="40" y="264" width="88" height="16"/>
	</g>
</g>
<g>
</g>
<g>
</g>
<g>
</g>
<g>
</g>
<g>
</g>
<g>
</g>
<g>
</g>
<g>
</g>
<g>
</g>
<g>
</g>
<g>
</g>
<g>
</g>
<g>
</g>
<g>
</g>
<g>
</g>
</svg>
