<?xml version="1.0" encoding="iso-8859-1"?>
<!-- Generator: Adobe Illustrator 19.0.0, SVG Export Plug-In . SVG Version: 6.00 Build 0)  -->
<svg version="1.1" id="Capa_1" xmlns="http://www.w3.org/2000/svg" xmlns:xlink="http://www.w3.org/1999/xlink" x="0px" y="0px"
	 viewBox="0 0 480 480" style="enable-background:new 0 0 480 480;" xml:space="preserve">
<g>
	<g>
		<path d="M472,140H72v-4c0-19.882-16.118-36-36-36S0,116.118,0,136v204c0.026,22.08,17.92,39.974,40,40h376c4.418,0,8-3.582,8-8
			v-24h48c4.418,0,8-3.582,8-8V148C480,143.582,476.418,140,472,140z M16,136c0-11.046,8.954-20,20-20s20,8.954,20,20v170.192
			c-12.055-8.221-27.905-8.259-40-0.096V136z M408,364H40c-13.255,0-24-10.745-24-24v-4c0-11.046,8.954-20,20-20s20,8.954,20,20v4
			c0,4.418,3.582,8,8,8h344V364z M464,332H72V156h392V332z"/>
	</g>
</g>
<g>
	<g>
		<path d="M440,172H96c-4.418,0-8,3.582-8,8v128c0,4.418,3.582,8,8,8h344c4.418,0,8-3.582,8-8V180C448,175.582,444.418,172,440,172z
			 M432,300H104V188h328V300z"/>
	</g>
</g>
<g>
	<g>
		<rect x="120" y="204" width="56" height="16"/>
	</g>
</g>
<g>
	<g>
		<rect x="120" y="236" width="176" height="16"/>
	</g>
</g>
<g>
	<g>
		<rect x="312" y="236" width="96" height="16"/>
	</g>
</g>
<g>
	<g>
		<rect x="280" y="268" width="128" height="16"/>
	</g>
</g>
<g>
</g>
<g>
</g>
<g>
</g>
<g>
</g>
<g>
</g>
<g>
</g>
<g>
</g>
<g>
</g>
<g>
</g>
<g>
</g>
<g>
</g>
<g>
</g>
<g>
</g>
<g>
</g>
<g>
</g>
</svg>
