<?xml version="1.0" encoding="iso-8859-1"?>
<!-- Generator: Adobe Illustrator 19.0.0, SVG Export Plug-In . SVG Version: 6.00 Build 0)  -->
<svg version="1.1" id="Capa_1" xmlns="http://www.w3.org/2000/svg" xmlns:xlink="http://www.w3.org/1999/xlink" x="0px" y="0px"
	 viewBox="0 0 483.968 483.968" style="enable-background:new 0 0 483.968 483.968;" xml:space="preserve">
<g>
	<g>
		<path d="M475.968,194.539h-101.6l-36-24c-7.813-5.224-17.002-8.009-26.4-8h-3.672c-13.432,0.018-24.315,10.904-24.328,24.336
			v7.664h-40c-13.255,0-24,10.745-24,24s10.745,24,24,24v45.336c0.035,11.967,8.05,22.439,19.592,25.6l-23.2,46.44
			c-23.589,37.359-12.425,86.767,24.934,110.355c37.359,23.589,86.767,12.425,110.355-24.934
			c15.543-24.616,16.486-55.733,2.463-81.246l-18.6-49.552h116.456c4.418,0,8-3.582,8-8v-104
			C483.968,198.121,480.386,194.539,475.968,194.539z M299.968,186.875c0.009-4.6,3.736-8.327,8.336-8.336h3.664
			c6.24-0.009,12.342,1.841,17.528,5.312l16.072,10.688h-45.6V186.875z M363.32,370.259c0.143,0.376,0.312,0.742,0.504,1.096
			c17.268,30.841,6.266,69.841-24.575,87.11c-30.841,17.268-69.841,6.266-87.11-24.575c-11.529-20.589-10.792-45.852,1.916-65.735
			c0.144-0.24,0.288-0.48,0.416-0.736l26.44-52.88h61.512L363.32,370.259z M363.968,298.539h-16h-77.336
			c-5.886-0.009-10.655-4.778-10.664-10.664v-53.336c0-4.418-3.582-8-8-8h-8c-4.418,0-8-3.582-8-8s3.582-8,8-8h120V298.539z
			 M427.968,298.539h-48v-88h48V298.539z M467.968,298.539h-24v-88h24V298.539z"/>
	</g>
</g>
<g>
	<g>
		<path d="M115.968,41.427l-96,52.36v100.752h192V93.787L115.968,41.427z M131.968,178.539h-32v-40h32V178.539z M195.968,178.539
			h-48v-56h-64v56h-48v-75.248l80-43.64l80,43.64V178.539z"/>
	</g>
</g>
<g>
	<g>
		<polygon points="115.968,1.331 0,67.595 7.936,81.483 115.968,19.747 224,81.483 231.936,67.595 		"/>
	</g>
</g>
<g>
	<g>
		<path d="M331.968,378.539v-8c-0.042-10.134-6.445-19.15-16-22.528v-9.472h-16v9.472c-9.555,3.378-15.958,12.394-16,22.528v8
			c0,13.255,10.745,24,24,24c4.418,0,8,3.582,8,8v8c0,4.418-3.582,8-8,8s-8-3.582-8-8h-16c0.042,10.134,6.445,19.15,16,22.528v9.472
			h16v-9.472c9.555-3.378,15.958-12.394,16-22.528v-8c0-13.255-10.745-24-24-24c-4.418,0-8-3.582-8-8v-8c0-4.418,3.582-8,8-8
			s8,3.582,8,8v8H331.968z"/>
	</g>
</g>
<g>
	<g>
		<rect x="395.968" y="274.539" width="16" height="16"/>
	</g>
</g>
<g>
	<g>
		<path d="M83.968,242.539h-16c0.323,77.738,51.319,146.17,125.72,168.704l4.56-15.328
			C130.614,375.423,84.258,313.209,83.968,242.539z"/>
	</g>
</g>
<g>
	<g>
		<path d="M243.968,66.539v16c61.758,0.19,117.954,35.722,144.608,91.432l14.456-6.864
			C373.709,105.832,311.898,66.752,243.968,66.539z"/>
	</g>
</g>
<g>
</g>
<g>
</g>
<g>
</g>
<g>
</g>
<g>
</g>
<g>
</g>
<g>
</g>
<g>
</g>
<g>
</g>
<g>
</g>
<g>
</g>
<g>
</g>
<g>
</g>
<g>
</g>
<g>
</g>
</svg>
