<?xml version="1.0" encoding="iso-8859-1"?>
<!-- Generator: Adobe Illustrator 19.0.0, SVG Export Plug-In . SVG Version: 6.00 Build 0)  -->
<svg version="1.1" id="Capa_1" xmlns="http://www.w3.org/2000/svg" xmlns:xlink="http://www.w3.org/1999/xlink" x="0px" y="0px"
	 viewBox="0 0 480.018 480.018" style="enable-background:new 0 0 480.018 480.018;" xml:space="preserve">
<g>
	<g>
		<path d="M478.263,234.953l-32-40c-1.522-1.891-3.82-2.989-6.248-2.984H179.023c-26.536-45.87-85.233-61.543-131.103-35.007
			c-45.87,26.536-61.543,85.233-35.007,131.103c17.159,29.662,48.835,47.921,83.103,47.904c34.251-0.047,65.883-18.338,83.008-48
			h36.992c1.238,0.014,2.462-0.26,3.576-0.8l27.848-13.928l20.136,13.424c2.688,1.794,6.192,1.794,8.88,0l19.56-13.096l19.56,13.04
			c2.688,1.794,6.192,1.794,8.88,0l19.56-13.04l19.56,13.04c1.314,0.88,2.859,1.353,4.44,1.36h24c1.58-0.003,3.124-0.47,4.44-1.344
			l19.56-13.056l19.56,13.04c3.453,2.305,8.095,1.585,10.688-1.656l32-40C480.603,242.03,480.603,237.876,478.263,234.953z
			 M96.015,319.969c-44.183,0-80-35.817-80-80c0.049-44.163,35.837-79.952,80-80c44.183,0,80,35.817,80,80
			C176.015,284.152,140.198,319.969,96.015,319.969z M436.175,207.969l6.4,8h-253.72c-0.704-2.709-1.504-5.376-2.4-8H436.175z
			 M438.351,269.241l-17.896-11.928c-2.688-1.794-6.192-1.794-8.88,0l-21.96,14.656h-19.2l-21.984-14.656
			c-2.688-1.794-6.192-1.794-8.88,0l-19.536,13.056l-19.56-13.04c-2.688-1.794-6.192-1.794-8.88,0l-19.56,13.04l-19.56-13.04
			c-2.384-1.588-5.435-1.78-8-0.504l-30.328,15.144h-27.712c3.683-10.268,5.577-21.092,5.6-32c0-2.704-0.184-5.352-0.408-8h263.76
			l6.4,8L438.351,269.241z"/>
	</g>
</g>
<g>
	<g>
		<path d="M56.015,207.969c-17.673,0-32,14.327-32,32s14.327,32,32,32s32-14.327,32-32S73.688,207.969,56.015,207.969z
			 M56.015,255.969c-8.837,0-16-7.163-16-16s7.163-16,16-16s16,7.163,16,16S64.852,255.969,56.015,255.969z"/>
	</g>
</g>
<g>
</g>
<g>
</g>
<g>
</g>
<g>
</g>
<g>
</g>
<g>
</g>
<g>
</g>
<g>
</g>
<g>
</g>
<g>
</g>
<g>
</g>
<g>
</g>
<g>
</g>
<g>
</g>
<g>
</g>
</svg>
