<?xml version="1.0" encoding="iso-8859-1"?>
<!-- Generator: Adobe Illustrator 19.0.0, SVG Export Plug-In . SVG Version: 6.00 Build 0)  -->
<svg version="1.1" id="Capa_1" xmlns="http://www.w3.org/2000/svg" xmlns:xlink="http://www.w3.org/1999/xlink" x="0px" y="0px"
	 viewBox="0 0 485.8 485.8" style="enable-background:new 0 0 485.8 485.8;" xml:space="preserve">
<g>
	<g>
		<path d="M391.488,303.008l-152-94.808c-2.59-1.615-5.874-1.615-8.464,0l-68.8,42.928v-26.664c0-4.418-3.582-8-8-8h-40.568
			c-4.418,0-8,3.582-8,8V286.4l-26.632,16.608c-3.751,2.335-4.899,7.268-2.565,11.019c1.461,2.348,4.031,3.775,6.797,3.773h22.4v160
			c0,4.418,3.582,8,8,8h248c4.418,0,8-3.582,8-8v-160h17.6c4.418,0.003,8.002-3.577,8.005-7.995
			C395.263,307.039,393.836,304.469,391.488,303.008z M265.656,469.8h-64v-80h64V469.8z M353.656,309.8v60.688L333.568,390.6
			l-29.856,7.464c-4.286,1.073-6.891,5.417-5.818,9.703c0.049,0.197,0.106,0.392,0.17,0.585l8,24l15.2-5.056l-5.272-15.808
			l23.624-5.904c1.405-0.352,2.688-1.08,3.712-2.104l10.328-10.368V469.8h-72v-88c0-4.418-3.582-8-8-8h-80c-4.418,0-8,3.582-8,8v88
			h-64v-75.72l18.4-12.28h21.6c2.674,0,5.172-1.335,6.656-3.56l16-24L171,345.36l-13.624,20.44h-19.72
			c-1.58,0.003-3.124,0.47-4.44,1.344l-11.56,7.712V309.8c0-4.418-3.582-8-8-8H111.2l6.688-4.168
			c2.345-1.461,3.769-4.029,3.768-6.792v-58.4h24.536v33.088c0.003,4.418,3.587,7.998,8.005,7.995
			c1.495-0.001,2.959-0.42,4.227-1.211l76.8-47.92l27.152,16.936L234.712,289.8c-2.192,3.836-0.858,8.723,2.978,10.915
			c0.634,0.362,1.314,0.636,2.022,0.813l23.112,5.776l-12.6,31.496l14.864,5.936L276.576,316L292,331.424l11.312-11.312l-24-24
			l-0.104,0.104c-0.976-1.054-2.225-1.818-3.608-2.208l-21.76-5.44l22.152-38.768l83.712,52.24
			C356.148,302.935,353.655,306.133,353.656,309.8z"/>
	</g>
</g>
<g>
	<g>
		<path d="M457.656,237.8v30.088l-203.28-148.552c-2.641-1.927-6.189-2.054-8.96-0.32l-58.736,36.712L23.168,0L12.144,11.6l168,160
			c2.646,2.514,6.657,2.919,9.752,0.984l59.408-37.128L444.096,277.8h-26.44v16h48c4.418,0,8-3.582,8-8v-48H457.656z"/>
	</g>
</g>
<g>
</g>
<g>
</g>
<g>
</g>
<g>
</g>
<g>
</g>
<g>
</g>
<g>
</g>
<g>
</g>
<g>
</g>
<g>
</g>
<g>
</g>
<g>
</g>
<g>
</g>
<g>
</g>
<g>
</g>
</svg>
