<?xml version="1.0" encoding="iso-8859-1"?>
<!-- Generator: Adobe Illustrator 19.0.0, SVG Export Plug-In . SVG Version: 6.00 Build 0)  -->
<svg version="1.1" id="Capa_1" xmlns="http://www.w3.org/2000/svg" xmlns:xlink="http://www.w3.org/1999/xlink" x="0px" y="0px"
	 viewBox="0 0 480.049 480.049" style="enable-background:new 0 0 480.049 480.049;" xml:space="preserve">
<g>
	<g>
		<path d="M479.204,316.449l-38.256-76.424l38.256-76.424c1.975-3.952,0.372-8.757-3.58-10.732c-1.124-0.562-2.364-0.851-3.62-0.844
			h-70.488C352.991,62.824,241.342,29.85,152.141,78.375c-31.135,16.938-56.712,42.514-73.649,73.649H8.004
			c-4.418-0.002-8.002,3.578-8.004,7.996c-0.001,1.243,0.288,2.468,0.844,3.58l38.216,76.424L0.844,316.449
			c-1.24,2.48-1.106,5.426,0.352,7.784c1.459,2.359,4.035,3.793,6.808,3.792h70.488c48.525,89.201,160.174,122.175,249.375,73.649
			c31.135-16.938,56.712-42.514,73.649-73.649h70.488c4.418,0.024,8.02-3.538,8.044-7.956
			C480.054,318.813,479.765,317.572,479.204,316.449z M240.004,72.025c58.392-0.135,112.628,30.187,143.096,80h-39.52
			c-48.407-57.177-134-64.286-191.177-15.879c-5.723,4.845-11.034,10.156-15.879,15.879H96.9
			C127.373,102.213,181.611,71.892,240.004,72.025z M321.42,152.025H158.636C204.51,109.359,275.546,109.359,321.42,152.025z
			 M240.004,408.025c-58.392,0.135-112.628-30.187-143.096-80h39.616c48.35,57.15,133.874,64.285,191.025,15.935
			c5.745-4.86,11.075-10.19,15.935-15.935H383.1C352.633,377.839,298.396,408.161,240.004,408.025z M158.636,328.025h162.736
			C275.517,370.692,204.491,370.692,158.636,328.025z M20.948,312.025l34.256-68.424c1.125-2.251,1.125-4.901,0-7.152
			l-34.256-68.424H459.06l-34.216,68.424c-1.125,2.251-1.125,4.901,0,7.152l34.216,68.424H20.948z"/>
	</g>
</g>
<g>
	<g>
		<path d="M285.66,226.369l-40-40c-3.124-3.123-8.188-3.123-11.312,0l-40,40c-1.5,1.5-2.344,3.534-2.344,5.656v56
			c0,4.418,3.582,8,8,8h80c4.418,0,8-3.582,8-8v-56C288.003,229.903,287.16,227.869,285.66,226.369z M272.004,280.025h-24v-16h-16
			v16h-24v-44.688l32-32l32,32V280.025z"/>
	</g>
</g>
<g>
</g>
<g>
</g>
<g>
</g>
<g>
</g>
<g>
</g>
<g>
</g>
<g>
</g>
<g>
</g>
<g>
</g>
<g>
</g>
<g>
</g>
<g>
</g>
<g>
</g>
<g>
</g>
<g>
</g>
</svg>
