<?xml version="1.0" encoding="iso-8859-1"?>
<!-- Generator: Adobe Illustrator 19.0.0, SVG Export Plug-In . SVG Version: 6.00 Build 0)  -->
<svg version="1.1" id="Capa_1" xmlns="http://www.w3.org/2000/svg" xmlns:xlink="http://www.w3.org/1999/xlink" x="0px" y="0px"
	 viewBox="0 0 480 480" style="enable-background:new 0 0 480 480;" xml:space="preserve">
<g>
	<g>
		<path d="M440,80H336V40c0-4.418-3.582-8-8-8h-56V8c0-4.418-3.582-8-8-8H136c-4.418,0-8,3.582-8,8v72H40c-4.418,0-8,3.582-8,8v384
			c0,4.418,3.582,8,8,8h400c4.418,0,8-3.582,8-8V88C448,83.582,444.418,80,440,80z M272,48h48v32h-48V48z M144,16h112v64H144V16z
			 M48,128h24v24H48V128z M48,200h24v24H48V200z M48,272h24v24H48V272z M48,344h24v24H48V344z M208,464H48v-48h160V464z M256,464
			h-32v-48h32V464z M432,464H272v-48h160V464z M432,400H48v-16h384V400z M88,368v-24h16v24H88z M120,368v-24h24v24H120z M160,368
			v-24h16v24H160z M192,368v-24h24v24H192z M232,368v-24h16v24H232z M264,368v-24h24v24H264z M304,368v-24h16v24H304z M336,368v-24
			h24v24H336z M376,368v-24h16v24H376z M432,368h-24v-24h24V368z M432,328H48v-16h384V328z M88,296v-24h16v24H88z M120,296v-24h24
			v24H120z M160,296v-24h16v24H160z M192,296v-24h24v24H192z M232,296v-24h16v24H232z M264,296v-24h24v24H264z M304,296v-24h16v24
			H304z M336,296v-24h24v24H336z M376,296v-24h16v24H376z M432,296h-24v-24h24V296z M432,256H48v-16h384V256z M88,224v-24h16v24H88z
			 M120,224v-24h24v24H120z M160,224v-24h16v24H160z M192,224v-24h24v24H192z M232,224v-24h16v24H232z M264,224v-24h24v24H264z
			 M304,224v-24h16v24H304z M336,224v-24h24v24H336z M376,224v-24h16v24H376z M432,224h-24v-24h24V224z M432,184H48v-16h32h352V184z
			 M88,152v-24h16v24H88z M120,152v-24h24v24H120z M160,152v-24h16v24H160z M192,152v-24h24v24H192z M232,152v-24h16v24H232z
			 M264,152v-24h24v24H264z M304,152v-24h16v24H304z M336,152v-24h24v24H336z M376,152v-24h16v24H376z M432,152h-24v-24h24V152z
			 M432,112H48V96h384V112z"/>
	</g>
</g>
<g>
	<g>
		<rect x="160" y="32" width="16" height="16"/>
	</g>
</g>
<g>
	<g>
		<rect x="192" y="32" width="16" height="16"/>
	</g>
</g>
<g>
	<g>
		<rect x="224" y="32" width="16" height="16"/>
	</g>
</g>
<g>
	<g>
		<rect x="288" y="56" width="16" height="16"/>
	</g>
</g>
<g>
</g>
<g>
</g>
<g>
</g>
<g>
</g>
<g>
</g>
<g>
</g>
<g>
</g>
<g>
</g>
<g>
</g>
<g>
</g>
<g>
</g>
<g>
</g>
<g>
</g>
<g>
</g>
<g>
</g>
</svg>
