<?xml version="1.0" encoding="iso-8859-1"?>
<!-- Generator: Adobe Illustrator 19.0.0, SVG Export Plug-In . SVG Version: 6.00 Build 0)  -->
<svg version="1.1" id="Capa_1" xmlns="http://www.w3.org/2000/svg" xmlns:xlink="http://www.w3.org/1999/xlink" x="0px" y="0px"
	 viewBox="0 0 480 480" style="enable-background:new 0 0 480 480;" xml:space="preserve">
<g>
	<g>
		<path d="M472,84H304V60c0-4.418-3.582-8-8-8H184c-4.418,0-8,3.582-8,8v24H8c-4.418,0-8,3.582-8,8v328c0,4.418,3.582,8,8,8h464
			c4.418,0,8-3.582,8-8V92C480,87.582,476.418,84,472,84z M176,412H16V100h160V412z M192,100h40v72h-40V100z M192,220h40v16h-40V220
			z M192,252h40v16h-40V252z M192,284h40v8h-40V284z M248,412h-16v-24h16V412z M288,412h-24v-32c0-4.418-3.582-8-8-8h-32
			c-4.418,0-8,3.582-8,8v32h-24v-72h96V412z M288,324h-96v-16h96V324z M288,292h-40v-72h40V292z M288,204h-96v-16h96V204z M288,172
			h-40v-8h40V172z M288,148h-40v-16h40V148z M288,116h-40v-16h40V116z M288,84h-96V68h96V84z M464,412H304V100h160V412z"/>
	</g>
</g>
<g>
	<g>
		<path d="M80,116H40c-4.418,0-8,3.582-8,8v40c0,4.418,3.582,8,8,8h40c4.418,0,8-3.582,8-8v-40C88,119.582,84.418,116,80,116z
			 M72,156H48v-24h24V156z"/>
	</g>
</g>
<g>
	<g>
		<path d="M152,116h-40c-4.418,0-8,3.582-8,8v40c0,4.418,3.582,8,8,8h40c4.418,0,8-3.582,8-8v-40C160,119.582,156.418,116,152,116z
			 M144,156h-24v-24h24V156z"/>
	</g>
</g>
<g>
	<g>
		<path d="M368,116h-40c-4.418,0-8,3.582-8,8v40c0,4.418,3.582,8,8,8h40c4.418,0,8-3.582,8-8v-40C376,119.582,372.418,116,368,116z
			 M360,156h-24v-24h24V156z"/>
	</g>
</g>
<g>
	<g>
		<path d="M440,116h-40c-4.418,0-8,3.582-8,8v40c0,4.418,3.582,8,8,8h40c4.418,0,8-3.582,8-8v-40C448,119.582,444.418,116,440,116z
			 M432,156h-24v-24h24V156z"/>
	</g>
</g>
<g>
	<g>
		<path d="M80,212H40c-4.418,0-8,3.582-8,8v40c0,4.418,3.582,8,8,8h40c4.418,0,8-3.582,8-8v-40C88,215.582,84.418,212,80,212z
			 M72,252H48v-24h24V252z"/>
	</g>
</g>
<g>
	<g>
		<path d="M152,212h-40c-4.418,0-8,3.582-8,8v40c0,4.418,3.582,8,8,8h40c4.418,0,8-3.582,8-8v-40C160,215.582,156.418,212,152,212z
			 M144,252h-24v-24h24V252z"/>
	</g>
</g>
<g>
	<g>
		<path d="M368,212h-40c-4.418,0-8,3.582-8,8v40c0,4.418,3.582,8,8,8h40c4.418,0,8-3.582,8-8v-40C376,215.582,372.418,212,368,212z
			 M360,252h-24v-24h24V252z"/>
	</g>
</g>
<g>
	<g>
		<path d="M440,212h-40c-4.418,0-8,3.582-8,8v40c0,4.418,3.582,8,8,8h40c4.418,0,8-3.582,8-8v-40C448,215.582,444.418,212,440,212z
			 M432,252h-24v-24h24V252z"/>
	</g>
</g>
<g>
	<g>
		<path d="M80,308H40c-4.418,0-8,3.582-8,8v40c0,4.418,3.582,8,8,8h40c4.418,0,8-3.582,8-8v-40C88,311.582,84.418,308,80,308z
			 M72,348H48v-24h24V348z"/>
	</g>
</g>
<g>
	<g>
		<path d="M152,308h-40c-4.418,0-8,3.582-8,8v40c0,4.418,3.582,8,8,8h40c4.418,0,8-3.582,8-8v-40C160,311.582,156.418,308,152,308z
			 M144,348h-24v-24h24V348z"/>
	</g>
</g>
<g>
	<g>
		<path d="M368,308h-40c-4.418,0-8,3.582-8,8v40c0,4.418,3.582,8,8,8h40c4.418,0,8-3.582,8-8v-40C376,311.582,372.418,308,368,308z
			 M360,348h-24v-24h24V348z"/>
	</g>
</g>
<g>
	<g>
		<path d="M440,308h-40c-4.418,0-8,3.582-8,8v40c0,4.418,3.582,8,8,8h40c4.418,0,8-3.582,8-8v-40C448,311.582,444.418,308,440,308z
			 M432,348h-24v-24h24V348z"/>
	</g>
</g>
<g>
</g>
<g>
</g>
<g>
</g>
<g>
</g>
<g>
</g>
<g>
</g>
<g>
</g>
<g>
</g>
<g>
</g>
<g>
</g>
<g>
</g>
<g>
</g>
<g>
</g>
<g>
</g>
<g>
</g>
</svg>
