<?xml version="1.0" encoding="iso-8859-1"?>
<!-- Generator: Adobe Illustrator 19.0.0, SVG Export Plug-In . SVG Version: 6.00 Build 0)  -->
<svg version="1.1" id="Capa_1" xmlns="http://www.w3.org/2000/svg" xmlns:xlink="http://www.w3.org/1999/xlink" x="0px" y="0px"
	 viewBox="0 0 480.022 480.022" style="enable-background:new 0 0 480.022 480.022;" xml:space="preserve">
<g>
	<g>
		<path d="M472.196,246.4c5.108-9.314,7.798-19.761,7.824-30.384c-0.118-28.526-19.005-53.568-46.4-61.52
			c-10.787-23.687-33.441-39.777-59.36-42.16c-6.399-23.383-30.542-37.152-53.925-30.753c-15.97,4.37-28.122,17.354-31.427,33.577
			c-10.88-4.144-22.904-4.144-33.784,0c-3.584-17.337-17.253-30.811-34.64-34.144c-21.45-33.378-65.896-43.049-99.275-21.599
			c-3.919,2.518-7.583,5.411-10.941,8.639c-7.111-2.68-14.649-4.049-22.248-4.04c-35.33,0.04-63.96,28.67-64,64
			c0.002,4.632,0.514,9.249,1.528,13.768C2.216,154.04-6.762,182.89,5.494,206.222c1.222,2.327,2.634,4.548,4.222,6.642
			c-10.609,7.806-12.881,22.734-5.075,33.342c3.338,4.537,8.174,7.745,13.651,9.058l29.864,74.648
			c8.097,20.416,24.962,36.096,45.912,42.688l-3.816,11.416H72.356c-4.418,0-8,3.582-8,8v32c0,4.418,3.582,8,8,8h48.328
			c3.229,0,6.141-1.94,7.384-4.92l21.288-51.08h213.328l21.288,51.08c1.243,2.98,4.155,4.92,7.384,4.92h48.328c4.418,0,8-3.582,8-8
			v-32c0-4.418-3.582-8-8-8h-17.896l-4.448-13.336c21.334-8.541,37.443-26.571,43.536-48.728l10.864-39.832c0,0,0-0.08,0-0.12
			c9.941-8.518,11.095-23.482,2.578-33.423C473.658,247.807,472.949,247.08,472.196,246.4z M115.348,416.016H80.356v-16H96.02
			c3.442-0.003,6.496-2.206,7.584-5.472l6.184-18.528h22.232L115.348,416.016z M431.684,400.016v16h-34.992l-16.672-40h22.232
			l6.184,18.528c1.088,3.266,4.142,5.469,7.584,5.472H431.684z M445.452,317.744c-6.852,24.934-29.502,42.229-55.36,42.272H116.276
			c-23.481,0.073-44.613-14.235-53.264-36.064l-27.176-67.936h122.296c7.941-0.032,15.207,4.459,18.728,11.576
			c6.232,12.542,19.043,20.459,33.048,20.424H453.54L445.452,317.744z M456.02,272.016H209.908
			c-7.926,0.017-15.173-4.472-18.688-11.576c-6.239-12.555-19.069-20.474-33.088-20.424H24.02c-4.418,0-8-3.582-8-8s3.582-8,8-8
			h150.112c7.941-0.032,15.207,4.459,18.728,11.576c6.232,12.542,19.043,20.459,33.048,20.424H456.02c4.418,0,8,3.582,8,8
			S460.438,272.016,456.02,272.016z M457.364,240.152c-0.456,0-0.888-0.136-1.344-0.136H225.908
			c-7.926,0.017-15.173-4.472-18.688-11.576c-6.239-12.555-19.069-20.474-33.088-20.424H27.124
			c-13.295-11.347-14.874-31.323-3.527-44.618c3.755-4.4,8.644-7.686,14.135-9.502c4.182-1.426,6.415-5.973,4.989-10.154
			c-0.004-0.013-0.009-0.025-0.013-0.038c-8.7-24.981,4.499-52.284,29.479-60.984c11.986-4.174,25.138-3.42,36.569,2.096
			c3.219,1.542,7.07,0.766,9.44-1.904c20.429-23.115,55.728-25.292,78.842-4.864c4.638,4.099,8.563,8.941,11.614,14.328
			c1.284,2.253,3.58,3.744,6.16,4c14.27,1.34,25.184,13.307,25.208,27.64c-0.028,0.84-0.114,1.676-0.256,2.504l-0.144,1.032
			c-0.569,4.381,2.522,8.394,6.904,8.963c2.122,0.275,4.266-0.311,5.952-1.627c11.478-8.993,27.61-8.993,39.088,0
			c3.483,2.719,8.51,2.099,11.229-1.384c1.317-1.687,1.903-3.83,1.627-5.952l-0.144-1.032c-0.142-0.828-0.228-1.664-0.256-2.504
			c-0.063-15.411,12.379-27.955,27.789-28.018c14.3-0.059,26.331,10.703,27.859,24.922c0.639,4.109,4.193,7.129,8.352,7.096
			c23.207,0.107,43.97,14.447,52.288,36.112c0.966,2.537,3.153,4.41,5.808,4.976c22.066,4.825,37.822,24.325,37.904,46.912
			C463.992,224.511,461.694,232.844,457.364,240.152z"/>
	</g>
</g>
<g>
	<g>
		<path d="M336.02,192.016h16c0-13.255,10.745-24,24-24v-16C353.94,152.043,336.047,169.936,336.02,192.016z"/>
	</g>
</g>
<g>
	<g>
		<path d="M232.02,184.016v16c13.255,0,24,10.745,24,24h16C271.994,201.936,254.1,184.043,232.02,184.016z"/>
	</g>
</g>
<g>
	<g>
		<path d="M83.156,152.512c-20.005,2.411-35.075,19.355-35.136,39.504h16c0-13.255,10.745-24,24-24h8c0-13.255,10.745-24,24-24v-16
			C103.927,128.035,89.407,137.683,83.156,152.512z"/>
	</g>
</g>
<g>
	<g>
		<path d="M176.02,96.016c-17.673,0-32,14.327-32,32h16c0-8.837,7.163-16,16-16s16,7.163,16,16h16
			C208.02,110.343,193.693,96.016,176.02,96.016z"/>
	</g>
</g>
<g>
</g>
<g>
</g>
<g>
</g>
<g>
</g>
<g>
</g>
<g>
</g>
<g>
</g>
<g>
</g>
<g>
</g>
<g>
</g>
<g>
</g>
<g>
</g>
<g>
</g>
<g>
</g>
<g>
</g>
</svg>
