<?xml version="1.0" encoding="iso-8859-1"?>
<!-- Generator: Adobe Illustrator 19.0.0, SVG Export Plug-In . SVG Version: 6.00 Build 0)  -->
<svg version="1.1" id="Capa_1" xmlns="http://www.w3.org/2000/svg" xmlns:xlink="http://www.w3.org/1999/xlink" x="0px" y="0px"
	 viewBox="0 0 480 480" style="enable-background:new 0 0 480 480;" xml:space="preserve">
<g>
	<g>
		<path d="M464,420.396v-32v-200c0-4.418-3.582-8-8-8h-8v-77.272l-64-27.432l-64,27.432v77.272h-8c-4.418,0-8,3.582-8,8v72h-8
			v-77.272l-64-27.432l-64,27.432v77.272c-4.418,0-8,3.582-8,8v72h-8v-80H24v80c-4.418,0-8,3.582-8,8v72H0v16h480v-16H464z
			 M40,276.396h96v64h-24v-40H64v40H40V276.396z M96,316.396v24H80v-24H96z M160,420.396H32v-24h128V420.396z M160,380.396H32v-24
			h128V380.396z M184,193.668l48-20.568l48,20.568v66.728h-24v-40h-48v40h-24V193.668z M240,236.396v24h-16v-24H240z M304,420.396
			H176v-24h128V420.396z M304,380.396H176v-24h128V380.396z M304,340.396H176v-24h128V340.396z M304,300.396H176v-24h128V300.396z
			 M336,113.668L384,93.1l48,20.568v66.728h-24v-40h-48v40h-24V113.668z M392,156.396v24h-16v-24H392z M448,420.396H320v-24h128
			V420.396z M448,380.396H320v-24h128V380.396z M448,340.396H320v-24h128V340.396z M448,300.396H320v-24h128V300.396z M448,260.396
			H320v-24h128V260.396z M448,220.396H320v-24h128V220.396z"/>
	</g>
</g>
<g>
	<g>
		<polygon points="384,43.604 292.688,85.116 299.312,99.676 384,61.188 468.688,99.676 475.312,85.116 		"/>
	</g>
</g>
<g>
</g>
<g>
</g>
<g>
</g>
<g>
</g>
<g>
</g>
<g>
</g>
<g>
</g>
<g>
</g>
<g>
</g>
<g>
</g>
<g>
</g>
<g>
</g>
<g>
</g>
<g>
</g>
<g>
</g>
</svg>
